<svg xmlns="http://www.w3.org/2000/svg" xmlns:xlink="http://www.w3.org/1999/xlink" width="1080" zoomAndPan="magnify" viewBox="0 0 810 1012.49997" height="1350" preserveAspectRatio="xMidYMid meet" version="1.0"><defs><clipPath id="15c07412aa"><path d="M 0.199219 101.199219 L 809.800781 101.199219 L 809.800781 910.800781 L 0.199219 910.800781 Z M 0.199219 101.199219 " clip-rule="nonzero"/></clipPath></defs><g clip-path="url(#15c07412aa)"><path fill="#203745" d="M 809.796875 505.996094 C 809.796875 512.621094 809.636719 519.242188 809.308594 525.859375 C 808.984375 532.476562 808.496094 539.082031 807.847656 545.675781 C 807.199219 552.269531 806.386719 558.839844 805.417969 565.394531 C 804.445312 571.949219 803.3125 578.472656 802.019531 584.96875 C 800.726562 591.46875 799.277344 597.929688 797.667969 604.355469 C 796.054688 610.78125 794.289062 617.164062 792.367188 623.503906 C 790.445312 629.84375 788.367188 636.132812 786.132812 642.371094 C 783.902344 648.609375 781.519531 654.789062 778.984375 660.90625 C 776.449219 667.027344 773.765625 673.082031 770.933594 679.070312 C 768.101562 685.0625 765.121094 690.976562 762 696.820312 C 758.875 702.660156 755.613281 708.425781 752.207031 714.105469 C 748.800781 719.789062 745.257812 725.382812 741.578125 730.894531 C 737.894531 736.402344 734.082031 741.816406 730.136719 747.136719 C 726.191406 752.457031 722.113281 757.679688 717.914062 762.800781 C 713.710938 767.921875 709.382812 772.9375 704.933594 777.84375 C 700.484375 782.753906 695.917969 787.550781 691.234375 792.234375 C 686.550781 796.917969 681.753906 801.484375 676.84375 805.933594 C 671.9375 810.382812 666.921875 814.710938 661.800781 818.914062 C 656.679688 823.117188 651.457031 827.191406 646.136719 831.136719 C 640.816406 835.082031 635.402344 838.894531 629.890625 842.578125 C 624.382812 846.257812 618.789062 849.800781 613.105469 853.207031 C 607.425781 856.613281 601.660156 859.875 595.820312 863 C 589.976562 866.121094 584.058594 869.101562 578.070312 871.933594 C 572.082031 874.765625 566.027344 877.449219 559.90625 879.984375 C 553.785156 882.519531 547.609375 884.902344 541.371094 887.136719 C 535.132812 889.367188 528.84375 891.445312 522.503906 893.367188 C 516.164062 895.289062 509.78125 897.058594 503.355469 898.667969 C 496.929688 900.277344 490.46875 901.726562 483.96875 903.019531 C 477.472656 904.3125 470.945312 905.445312 464.394531 906.417969 C 457.839844 907.390625 451.265625 908.199219 444.675781 908.847656 C 438.082031 909.5 431.476562 909.984375 424.859375 910.308594 C 418.242188 910.636719 411.621094 910.796875 404.996094 910.796875 C 398.371094 910.796875 391.75 910.636719 385.132812 910.308594 C 378.519531 909.984375 371.914062 909.5 365.320312 908.847656 C 358.726562 908.199219 352.152344 907.390625 345.601562 906.417969 C 339.046875 905.445312 332.523438 904.3125 326.023438 903.019531 C 319.527344 901.726562 313.066406 900.277344 306.640625 898.667969 C 300.210938 897.058594 293.828125 895.289062 287.488281 893.367188 C 281.148438 891.445312 274.863281 889.367188 268.625 887.136719 C 262.386719 884.902344 256.207031 882.519531 250.085938 879.984375 C 243.964844 877.449219 237.910156 874.765625 231.921875 871.933594 C 225.933594 869.101562 220.019531 866.121094 214.175781 863 C 208.332031 859.875 202.570312 856.613281 196.886719 853.207031 C 191.207031 849.800781 185.609375 846.257812 180.101562 842.578125 C 174.59375 838.894531 169.179688 835.082031 163.859375 831.136719 C 158.535156 827.191406 153.316406 823.117188 148.195312 818.914062 C 143.074219 814.710938 138.058594 810.382812 133.148438 805.933594 C 128.242188 801.484375 123.445312 796.917969 118.761719 792.234375 C 114.074219 787.550781 109.507812 782.753906 105.058594 777.84375 C 100.609375 772.9375 96.285156 767.921875 92.082031 762.800781 C 87.878906 757.679688 83.804688 752.457031 79.859375 747.136719 C 75.910156 741.816406 72.097656 736.402344 68.417969 730.894531 C 64.738281 725.382812 61.195312 719.789062 57.789062 714.105469 C 54.382812 708.425781 51.117188 702.660156 47.996094 696.820312 C 44.871094 690.976562 41.894531 685.0625 39.0625 679.070312 C 36.230469 673.082031 33.546875 667.027344 31.011719 660.90625 C 28.476562 654.789062 26.089844 648.609375 23.859375 642.371094 C 21.628906 636.132812 19.550781 629.84375 17.628906 623.503906 C 15.703125 617.164062 13.9375 610.78125 12.328125 604.355469 C 10.71875 597.929688 9.265625 591.46875 7.976562 584.96875 C 6.683594 578.472656 5.550781 571.949219 4.578125 565.394531 C 3.605469 558.839844 2.796875 552.269531 2.144531 545.675781 C 1.496094 539.082031 1.007812 532.476562 0.683594 525.859375 C 0.359375 519.242188 0.195312 512.621094 0.195312 505.996094 C 0.195312 499.371094 0.359375 492.75 0.683594 486.136719 C 1.007812 479.519531 1.496094 472.914062 2.144531 466.320312 C 2.796875 459.726562 3.605469 453.152344 4.578125 446.601562 C 5.550781 440.046875 6.683594 433.523438 7.976562 427.023438 C 9.265625 420.527344 10.71875 414.066406 12.328125 407.640625 C 13.9375 401.210938 15.703125 394.828125 17.628906 388.492188 C 19.550781 382.152344 21.628906 375.863281 23.859375 369.625 C 26.089844 363.386719 28.476562 357.207031 31.011719 351.085938 C 33.546875 344.964844 36.230469 338.910156 39.0625 332.921875 C 41.894531 326.933594 44.871094 321.019531 47.996094 315.175781 C 51.117188 309.332031 54.382812 303.570312 57.789062 297.886719 C 61.195312 292.207031 64.738281 286.609375 68.417969 281.101562 C 72.097656 275.59375 75.910156 270.179688 79.859375 264.859375 C 83.804688 259.539062 87.878906 254.316406 92.082031 249.195312 C 96.285156 244.074219 100.609375 239.058594 105.058594 234.148438 C 109.507812 229.242188 114.074219 224.445312 118.761719 219.761719 C 123.445312 215.074219 128.242188 210.507812 133.148438 206.058594 C 138.058594 201.609375 143.074219 197.285156 148.195312 193.082031 C 153.316406 188.878906 158.535156 184.804688 163.859375 180.859375 C 169.179688 176.914062 174.59375 173.097656 180.101562 169.417969 C 185.609375 165.738281 191.207031 162.195312 196.886719 158.789062 C 202.570312 155.382812 208.332031 152.117188 214.175781 148.996094 C 220.019531 145.871094 225.933594 142.894531 231.921875 140.0625 C 237.910156 137.230469 243.964844 134.546875 250.085938 132.011719 C 256.207031 129.476562 262.386719 127.09375 268.625 124.859375 C 274.863281 122.628906 281.148438 120.550781 287.488281 118.628906 C 293.828125 116.703125 300.210938 114.9375 306.640625 113.328125 C 313.066406 111.71875 319.527344 110.269531 326.023438 108.976562 C 332.523438 107.683594 339.046875 106.550781 345.601562 105.578125 C 352.152344 104.605469 358.726562 103.796875 365.320312 103.144531 C 371.914062 102.496094 378.519531 102.011719 385.132812 101.683594 C 391.75 101.359375 398.371094 101.195312 404.996094 101.195312 C 411.621094 101.195312 418.242188 101.359375 424.859375 101.683594 C 431.476562 102.011719 438.082031 102.496094 444.675781 103.144531 C 451.265625 103.796875 457.839844 104.605469 464.394531 105.578125 C 470.945312 106.550781 477.472656 107.683594 483.96875 108.976562 C 490.46875 110.269531 496.929688 111.71875 503.355469 113.328125 C 509.78125 114.9375 516.164062 116.703125 522.503906 118.628906 C 528.84375 120.550781 535.132812 122.628906 541.371094 124.859375 C 547.609375 127.09375 553.785156 129.476562 559.90625 132.011719 C 566.027344 134.546875 572.082031 137.230469 578.070312 140.0625 C 584.058594 142.894531 589.976562 145.871094 595.820312 148.996094 C 601.660156 152.117188 607.425781 155.382812 613.105469 158.789062 C 618.789062 162.195312 624.382812 165.738281 629.890625 169.417969 C 635.402344 173.097656 640.816406 176.914062 646.136719 180.859375 C 651.457031 184.804688 656.679688 188.878906 661.800781 193.082031 C 666.921875 197.285156 671.9375 201.609375 676.84375 206.058594 C 681.753906 210.507812 686.550781 215.074219 691.234375 219.761719 C 695.917969 224.445312 700.484375 229.242188 704.933594 234.148438 C 709.382812 239.058594 713.710938 244.074219 717.914062 249.195312 C 722.113281 254.316406 726.191406 259.539062 730.136719 264.859375 C 734.082031 270.179688 737.894531 275.59375 741.578125 281.101562 C 745.257812 286.609375 748.800781 292.207031 752.207031 297.886719 C 755.613281 303.570312 758.875 309.332031 762 315.175781 C 765.121094 321.019531 768.101562 326.933594 770.933594 332.921875 C 773.765625 338.910156 776.449219 344.964844 778.984375 351.085938 C 781.519531 357.207031 783.902344 363.386719 786.132812 369.625 C 788.367188 375.863281 790.445312 382.152344 792.367188 388.492188 C 794.289062 394.828125 796.054688 401.210938 797.667969 407.640625 C 799.277344 414.066406 800.726562 420.527344 802.019531 427.023438 C 803.3125 433.523438 804.445312 440.046875 805.417969 446.601562 C 806.386719 453.152344 807.199219 459.726562 807.847656 466.320312 C 808.496094 472.914062 808.984375 479.519531 809.308594 486.136719 C 809.636719 492.75 809.796875 499.371094 809.796875 505.996094 Z M 809.796875 505.996094 " fill-opacity="1" fill-rule="nonzero"/></g><path fill="#f0f8ff" d="M 772.882812 506 C 772.882812 512.019531 772.734375 518.039062 772.441406 524.050781 C 772.144531 530.0625 771.703125 536.066406 771.113281 542.058594 C 770.523438 548.050781 769.785156 554.023438 768.902344 559.980469 C 768.019531 565.933594 766.988281 571.863281 765.816406 577.769531 C 764.640625 583.675781 763.320312 589.546875 761.859375 595.386719 C 760.394531 601.226562 758.789062 607.027344 757.042969 612.789062 C 755.296875 618.550781 753.40625 624.265625 751.378906 629.9375 C 749.351562 635.605469 747.183594 641.21875 744.878906 646.78125 C 742.574219 652.34375 740.136719 657.847656 737.5625 663.289062 C 734.988281 668.734375 732.28125 674.109375 729.445312 679.417969 C 726.605469 684.726562 723.640625 689.964844 720.542969 695.128906 C 717.449219 700.292969 714.230469 705.378906 710.882812 710.382812 C 707.539062 715.390625 704.074219 720.3125 700.488281 725.148438 C 696.902344 729.984375 693.199219 734.726562 689.378906 739.382812 C 685.558594 744.035156 681.628906 748.59375 677.582031 753.054688 C 673.539062 757.515625 669.390625 761.875 665.132812 766.132812 C 660.875 770.390625 656.515625 774.539062 652.054688 778.582031 C 647.59375 782.625 643.039062 786.558594 638.382812 790.378906 C 633.730469 794.195312 628.984375 797.898438 624.148438 801.484375 C 619.3125 805.074219 614.390625 808.539062 609.386719 811.882812 C 604.378906 815.226562 599.292969 818.449219 594.128906 821.542969 C 588.964844 824.636719 583.730469 827.605469 578.417969 830.445312 C 573.109375 833.28125 567.734375 835.988281 562.289062 838.5625 C 556.847656 841.136719 551.34375 843.574219 545.785156 845.878906 C 540.222656 848.183594 534.605469 850.347656 528.9375 852.378906 C 523.269531 854.40625 517.554688 856.292969 511.792969 858.042969 C 506.03125 859.789062 500.230469 861.394531 494.390625 862.859375 C 488.546875 864.320312 482.675781 865.640625 476.769531 866.8125 C 470.867188 867.988281 464.9375 869.015625 458.980469 869.902344 C 453.023438 870.785156 447.050781 871.519531 441.058594 872.109375 C 435.066406 872.703125 429.066406 873.144531 423.050781 873.441406 C 417.039062 873.734375 411.019531 873.882812 405 873.882812 C 398.980469 873.882812 392.960938 873.734375 386.949219 873.441406 C 380.9375 873.144531 374.933594 872.703125 368.941406 872.109375 C 362.949219 871.519531 356.976562 870.785156 351.019531 869.902344 C 345.066406 869.015625 339.136719 867.988281 333.230469 866.8125 C 327.324219 865.640625 321.453125 864.320312 315.613281 862.859375 C 309.773438 861.394531 303.972656 859.789062 298.210938 858.042969 C 292.449219 856.292969 286.734375 854.40625 281.0625 852.378906 C 275.394531 850.347656 269.78125 848.183594 264.21875 845.878906 C 258.65625 843.574219 253.152344 841.136719 247.710938 838.5625 C 242.265625 835.988281 236.890625 833.28125 231.582031 830.445312 C 226.273438 827.605469 221.035156 824.636719 215.871094 821.542969 C 210.707031 818.449219 205.621094 815.226562 200.617188 811.882812 C 195.609375 808.539062 190.6875 805.074219 185.851562 801.484375 C 181.015625 797.898438 176.273438 794.195312 171.617188 790.378906 C 166.964844 786.558594 162.40625 782.625 157.945312 778.582031 C 153.484375 774.539062 149.125 770.390625 144.867188 766.132812 C 140.609375 761.875 136.460938 757.515625 132.417969 753.054688 C 128.375 748.59375 124.441406 744.035156 120.621094 739.382812 C 116.804688 734.726562 113.101562 729.984375 109.515625 725.148438 C 105.925781 720.3125 102.460938 715.390625 99.117188 710.382812 C 95.773438 705.378906 92.550781 700.292969 89.457031 695.128906 C 86.363281 689.964844 83.394531 684.726562 80.554688 679.417969 C 77.71875 674.109375 75.011719 668.734375 72.4375 663.289062 C 69.863281 657.847656 67.425781 652.34375 65.121094 646.78125 C 62.816406 641.21875 60.652344 635.605469 58.621094 629.9375 C 56.59375 624.265625 54.707031 618.550781 52.957031 612.789062 C 51.210938 607.027344 49.605469 601.226562 48.140625 595.386719 C 46.679688 589.546875 45.359375 583.675781 44.1875 577.769531 C 43.011719 571.863281 41.984375 565.933594 41.097656 559.980469 C 40.214844 554.023438 39.480469 548.050781 38.890625 542.058594 C 38.296875 536.066406 37.855469 530.0625 37.558594 524.050781 C 37.265625 518.039062 37.117188 512.019531 37.117188 506 C 37.117188 499.980469 37.265625 493.960938 37.558594 487.949219 C 37.855469 481.933594 38.296875 475.933594 38.890625 469.941406 C 39.480469 463.949219 40.214844 457.976562 41.097656 452.019531 C 41.984375 446.0625 43.011719 440.132812 44.1875 434.230469 C 45.359375 428.324219 46.679688 422.453125 48.140625 416.609375 C 49.605469 410.769531 51.210938 404.96875 52.957031 399.207031 C 54.707031 393.445312 56.59375 387.730469 58.621094 382.0625 C 60.652344 376.394531 62.816406 370.777344 65.121094 365.214844 C 67.425781 359.652344 69.863281 354.152344 72.4375 348.710938 C 75.011719 343.265625 77.71875 337.890625 80.554688 332.582031 C 83.394531 327.269531 86.363281 322.035156 89.457031 316.871094 C 92.550781 311.707031 95.773438 306.621094 99.117188 301.613281 C 102.460938 296.609375 105.925781 291.6875 109.515625 286.851562 C 113.101562 282.015625 116.804688 277.269531 120.621094 272.617188 C 124.441406 267.960938 128.375 263.40625 132.417969 258.945312 C 136.460938 254.484375 140.609375 250.125 144.867188 245.867188 C 149.125 241.609375 153.484375 237.460938 157.945312 233.414062 C 162.40625 229.371094 166.964844 225.441406 171.617188 221.621094 C 176.273438 217.800781 181.015625 214.097656 185.851562 210.511719 C 190.6875 206.925781 195.609375 203.460938 200.617188 200.117188 C 205.621094 196.769531 210.707031 193.550781 215.871094 190.457031 C 221.035156 187.359375 226.273438 184.394531 231.582031 181.554688 C 236.890625 178.71875 242.265625 176.011719 247.710938 173.4375 C 253.152344 170.863281 258.65625 168.421875 264.21875 166.121094 C 269.78125 163.816406 275.394531 161.648438 281.0625 159.621094 C 286.734375 157.59375 292.449219 155.703125 298.210938 153.957031 C 303.972656 152.210938 309.773438 150.605469 315.613281 149.140625 C 321.453125 147.679688 327.324219 146.359375 333.230469 145.183594 C 339.136719 144.011719 345.066406 142.980469 351.019531 142.097656 C 356.976562 141.214844 362.949219 140.476562 368.941406 139.886719 C 374.933594 139.296875 380.9375 138.855469 386.949219 138.558594 C 392.960938 138.265625 398.980469 138.117188 405 138.117188 C 411.019531 138.117188 417.039062 138.265625 423.050781 138.558594 C 429.066406 138.855469 435.066406 139.296875 441.058594 139.886719 C 447.050781 140.476562 453.023438 141.214844 458.980469 142.097656 C 464.9375 142.980469 470.867188 144.011719 476.769531 145.183594 C 482.675781 146.359375 488.546875 147.679688 494.390625 149.140625 C 500.230469 150.605469 506.03125 152.210938 511.792969 153.957031 C 517.554688 155.703125 523.269531 157.59375 528.9375 159.621094 C 534.605469 161.648438 540.222656 163.816406 545.785156 166.121094 C 551.34375 168.421875 556.847656 170.863281 562.289062 173.4375 C 567.734375 176.011719 573.109375 178.71875 578.417969 181.554688 C 583.730469 184.394531 588.964844 187.359375 594.128906 190.457031 C 599.292969 193.550781 604.378906 196.769531 609.386719 200.117188 C 614.390625 203.460938 619.3125 206.925781 624.148438 210.511719 C 628.984375 214.097656 633.730469 217.800781 638.382812 221.621094 C 643.039062 225.441406 647.59375 229.371094 652.054688 233.414062 C 656.515625 237.460938 660.875 241.609375 665.132812 245.867188 C 669.390625 250.125 673.539062 254.484375 677.582031 258.945312 C 681.628906 263.40625 685.558594 267.960938 689.378906 272.617188 C 693.199219 277.269531 696.902344 282.015625 700.488281 286.851562 C 704.074219 291.6875 707.539062 296.609375 710.882812 301.613281 C 714.230469 306.621094 717.449219 311.707031 720.542969 316.871094 C 723.640625 322.035156 726.605469 327.269531 729.445312 332.582031 C 732.28125 337.890625 734.988281 343.265625 737.5625 348.710938 C 740.136719 354.152344 742.574219 359.652344 744.878906 365.214844 C 747.183594 370.777344 749.351562 376.394531 751.378906 382.0625 C 753.40625 387.730469 755.296875 393.445312 757.042969 399.207031 C 758.789062 404.96875 760.394531 410.769531 761.859375 416.609375 C 763.320312 422.453125 764.640625 428.324219 765.816406 434.230469 C 766.988281 440.132812 768.019531 446.0625 768.902344 452.019531 C 769.785156 457.976562 770.523438 463.949219 771.113281 469.941406 C 771.703125 475.933594 772.144531 481.933594 772.441406 487.949219 C 772.734375 493.960938 772.882812 499.980469 772.882812 506 Z M 772.882812 506 " fill-opacity="1" fill-rule="nonzero"/><path fill="#203745" d="M 403.78125 154.070312 C 401.613281 154.070312 399.53125 154.929688 397.996094 156.464844 C 396.464844 158 395.601562 160.078125 395.601562 162.25 C 395.601562 176.378906 395.601562 205.203125 395.601562 219.332031 C 395.601562 221.503906 396.464844 223.582031 397.996094 225.117188 C 399.53125 226.648438 401.613281 227.511719 403.78125 227.511719 L 406.214844 227.511719 C 408.382812 227.511719 410.464844 226.648438 411.996094 225.117188 C 413.53125 223.582031 414.394531 221.503906 414.394531 219.332031 C 414.394531 205.203125 414.394531 176.378906 414.394531 162.25 C 414.394531 160.078125 413.53125 158 411.996094 156.464844 C 410.464844 154.929688 408.382812 154.070312 406.214844 154.070312 Z M 403.78125 154.070312 " fill-opacity="1" fill-rule="evenodd"/><path fill="#203745" d="M 753.191406 495.382812 C 753.191406 493.214844 752.328125 491.132812 750.792969 489.601562 C 749.257812 488.066406 747.179688 487.203125 745.011719 487.203125 C 730.878906 487.203125 702.058594 487.203125 687.925781 487.203125 C 685.757812 487.203125 683.675781 488.066406 682.140625 489.601562 C 680.609375 491.132812 679.746094 493.214844 679.746094 495.382812 C 679.746094 496.191406 679.746094 497.011719 679.746094 497.816406 C 679.746094 499.988281 680.609375 502.066406 682.140625 503.601562 C 683.675781 505.136719 685.757812 505.996094 687.925781 505.996094 C 702.058594 505.996094 730.878906 505.996094 745.011719 505.996094 C 747.179688 505.996094 749.257812 505.136719 750.792969 503.601562 C 752.328125 502.066406 753.191406 499.988281 753.191406 497.816406 C 753.191406 497.011719 753.191406 496.191406 753.191406 495.382812 Z M 753.191406 495.382812 " fill-opacity="1" fill-rule="evenodd"/><path fill="#203745" d="M 579.140625 222.125 C 579.140625 222.984375 579.058594 223.839844 578.886719 224.6875 C 578.71875 225.53125 578.472656 226.355469 578.140625 227.152344 C 577.8125 227.949219 577.40625 228.703125 576.925781 229.421875 C 576.449219 230.140625 575.902344 230.800781 575.292969 231.414062 C 574.683594 232.023438 574.019531 232.566406 573.300781 233.046875 C 572.585938 233.527344 571.828125 233.929688 571.03125 234.261719 C 570.234375 234.589844 569.414062 234.839844 568.566406 235.007812 C 567.722656 235.175781 566.867188 235.261719 566.003906 235.261719 C 565.140625 235.261719 564.285156 235.175781 563.441406 235.007812 C 562.59375 234.839844 561.773438 234.589844 560.976562 234.261719 C 560.179688 233.929688 559.421875 233.527344 558.707031 233.046875 C 557.988281 232.566406 557.324219 232.023438 556.714844 231.414062 C 556.105469 230.800781 555.558594 230.140625 555.082031 229.421875 C 554.601562 228.703125 554.195312 227.949219 553.867188 227.152344 C 553.535156 226.355469 553.289062 225.53125 553.121094 224.6875 C 552.949219 223.839844 552.867188 222.984375 552.867188 222.125 C 552.867188 221.261719 552.949219 220.40625 553.121094 219.558594 C 553.289062 218.714844 553.535156 217.894531 553.867188 217.097656 C 554.195312 216.300781 554.601562 215.542969 555.082031 214.824219 C 555.558594 214.109375 556.105469 213.445312 556.714844 212.832031 C 557.324219 212.222656 557.988281 211.679688 558.707031 211.199219 C 559.421875 210.722656 560.179688 210.316406 560.976562 209.984375 C 561.773438 209.65625 562.59375 209.40625 563.441406 209.238281 C 564.285156 209.070312 565.140625 208.984375 566.003906 208.984375 C 566.867188 208.984375 567.722656 209.070312 568.566406 209.238281 C 569.414062 209.40625 570.234375 209.65625 571.03125 209.984375 C 571.828125 210.316406 572.585938 210.722656 573.300781 211.199219 C 574.019531 211.679688 574.683594 212.222656 575.292969 212.832031 C 575.902344 213.445312 576.449219 214.109375 576.925781 214.824219 C 577.40625 215.542969 577.8125 216.300781 578.140625 217.097656 C 578.472656 217.894531 578.71875 218.714844 578.886719 219.558594 C 579.058594 220.40625 579.140625 221.261719 579.140625 222.125 Z M 579.140625 222.125 " fill-opacity="1" fill-rule="nonzero"/><path fill="#203745" d="M 696.570312 337.945312 C 696.570312 338.808594 696.488281 339.664062 696.320312 340.507812 C 696.152344 341.355469 695.902344 342.175781 695.570312 342.972656 C 695.242188 343.769531 694.835938 344.527344 694.359375 345.246094 C 693.878906 345.960938 693.335938 346.625 692.722656 347.234375 C 692.113281 347.84375 691.449219 348.390625 690.734375 348.871094 C 690.015625 349.347656 689.257812 349.753906 688.460938 350.082031 C 687.664062 350.414062 686.84375 350.664062 685.996094 350.832031 C 685.152344 351 684.296875 351.082031 683.433594 351.082031 C 682.574219 351.082031 681.71875 351 680.871094 350.832031 C 680.027344 350.664062 679.203125 350.414062 678.40625 350.082031 C 677.609375 349.753906 676.855469 349.347656 676.136719 348.871094 C 675.417969 348.390625 674.753906 347.84375 674.144531 347.234375 C 673.535156 346.625 672.992188 345.960938 672.511719 345.246094 C 672.03125 344.527344 671.628906 343.769531 671.296875 342.972656 C 670.96875 342.175781 670.71875 341.355469 670.550781 340.507812 C 670.382812 339.664062 670.296875 338.808594 670.296875 337.945312 C 670.296875 337.082031 670.382812 336.230469 670.550781 335.382812 C 670.71875 334.539062 670.96875 333.714844 671.296875 332.917969 C 671.628906 332.121094 672.03125 331.363281 672.511719 330.648438 C 672.992188 329.929688 673.535156 329.265625 674.144531 328.65625 C 674.753906 328.046875 675.417969 327.503906 676.136719 327.023438 C 676.855469 326.542969 677.609375 326.140625 678.40625 325.808594 C 679.203125 325.480469 680.027344 325.230469 680.871094 325.0625 C 681.71875 324.894531 682.574219 324.808594 683.433594 324.808594 C 684.296875 324.808594 685.152344 324.894531 685.996094 325.0625 C 686.84375 325.230469 687.664062 325.480469 688.460938 325.808594 C 689.257812 326.140625 690.015625 326.542969 690.734375 327.023438 C 691.449219 327.503906 692.113281 328.046875 692.722656 328.65625 C 693.335938 329.265625 693.878906 329.929688 694.359375 330.648438 C 694.835938 331.363281 695.242188 332.121094 695.570312 332.917969 C 695.902344 333.714844 696.152344 334.539062 696.320312 335.382812 C 696.488281 336.230469 696.570312 337.082031 696.570312 337.945312 Z M 696.570312 337.945312 " fill-opacity="1" fill-rule="nonzero"/><path fill="#203745" d="M 712.027344 656.148438 C 712.027344 657.007812 711.945312 657.863281 711.777344 658.710938 C 711.609375 659.554688 711.359375 660.378906 711.027344 661.175781 C 710.699219 661.972656 710.292969 662.726562 709.8125 663.445312 C 709.335938 664.164062 708.789062 664.824219 708.179688 665.4375 C 707.570312 666.046875 706.90625 666.589844 706.191406 667.070312 C 705.472656 667.550781 704.714844 667.953125 703.917969 668.285156 C 703.121094 668.613281 702.300781 668.863281 701.453125 669.03125 C 700.609375 669.199219 699.753906 669.285156 698.890625 669.285156 C 698.027344 669.285156 697.175781 669.199219 696.328125 669.03125 C 695.480469 668.863281 694.660156 668.613281 693.863281 668.285156 C 693.066406 667.953125 692.308594 667.550781 691.59375 667.070312 C 690.875 666.589844 690.210938 666.046875 689.601562 665.4375 C 688.992188 664.824219 688.449219 664.164062 687.96875 663.445312 C 687.488281 662.726562 687.085938 661.972656 686.753906 661.175781 C 686.425781 660.378906 686.175781 659.554688 686.007812 658.710938 C 685.839844 657.863281 685.753906 657.007812 685.753906 656.148438 C 685.753906 655.285156 685.839844 654.429688 686.007812 653.582031 C 686.175781 652.738281 686.425781 651.917969 686.753906 651.121094 C 687.085938 650.324219 687.488281 649.566406 687.96875 648.847656 C 688.449219 648.132812 688.992188 647.46875 689.601562 646.859375 C 690.210938 646.246094 690.875 645.703125 691.59375 645.222656 C 692.308594 644.746094 693.066406 644.339844 693.863281 644.011719 C 694.660156 643.679688 695.480469 643.429688 696.328125 643.261719 C 697.175781 643.09375 698.027344 643.011719 698.890625 643.011719 C 699.753906 643.011719 700.609375 643.09375 701.453125 643.261719 C 702.300781 643.429688 703.121094 643.679688 703.917969 644.011719 C 704.714844 644.339844 705.472656 644.746094 706.191406 645.222656 C 706.90625 645.703125 707.570312 646.246094 708.179688 646.859375 C 708.789062 647.46875 709.335938 648.132812 709.8125 648.847656 C 710.292969 649.566406 710.699219 650.324219 711.027344 651.121094 C 711.359375 651.917969 711.609375 652.738281 711.777344 653.582031 C 711.945312 654.429688 712.027344 655.285156 712.027344 656.148438 Z M 712.027344 656.148438 " fill-opacity="1" fill-rule="nonzero"/><path fill="#203745" d="M 590.078125 788.441406 C 590.078125 789.300781 589.992188 790.15625 589.824219 791.003906 C 589.65625 791.847656 589.40625 792.671875 589.078125 793.46875 C 588.746094 794.265625 588.339844 795.019531 587.863281 795.738281 C 587.382812 796.457031 586.839844 797.121094 586.230469 797.730469 C 585.617188 798.339844 584.953125 798.882812 584.238281 799.363281 C 583.519531 799.84375 582.761719 800.246094 581.964844 800.578125 C 581.167969 800.90625 580.347656 801.15625 579.503906 801.324219 C 578.65625 801.492188 577.800781 801.578125 576.9375 801.578125 C 576.078125 801.578125 575.222656 801.492188 574.375 801.324219 C 573.53125 801.15625 572.707031 800.90625 571.910156 800.578125 C 571.113281 800.246094 570.359375 799.84375 569.640625 799.363281 C 568.921875 798.882812 568.261719 798.339844 567.648438 797.730469 C 567.039062 797.121094 566.496094 796.457031 566.015625 795.738281 C 565.535156 795.019531 565.132812 794.265625 564.800781 793.46875 C 564.472656 792.671875 564.222656 791.847656 564.054688 791.003906 C 563.886719 790.15625 563.800781 789.300781 563.800781 788.441406 C 563.800781 787.578125 563.886719 786.722656 564.054688 785.878906 C 564.222656 785.03125 564.472656 784.210938 564.800781 783.414062 C 565.132812 782.617188 565.535156 781.859375 566.015625 781.140625 C 566.496094 780.425781 567.039062 779.761719 567.648438 779.152344 C 568.261719 778.539062 568.921875 777.996094 569.640625 777.515625 C 570.359375 777.039062 571.113281 776.632812 571.910156 776.304688 C 572.707031 775.972656 573.53125 775.722656 574.375 775.554688 C 575.222656 775.386719 576.078125 775.304688 576.9375 775.304688 C 577.800781 775.304688 578.65625 775.386719 579.503906 775.554688 C 580.347656 775.722656 581.167969 775.972656 581.964844 776.304688 C 582.761719 776.632812 583.519531 777.039062 584.238281 777.515625 C 584.953125 777.996094 585.617188 778.539062 586.230469 779.152344 C 586.839844 779.761719 587.382812 780.425781 587.863281 781.140625 C 588.339844 781.859375 588.746094 782.617188 589.078125 783.414062 C 589.40625 784.210938 589.65625 785.03125 589.824219 785.878906 C 589.992188 786.722656 590.078125 787.578125 590.078125 788.441406 Z M 590.078125 788.441406 " fill-opacity="1" fill-rule="nonzero"/><path fill="#203745" d="M 54.707031 495.382812 C 54.707031 493.214844 55.570312 491.132812 57.101562 489.601562 C 58.636719 488.066406 60.71875 487.203125 62.886719 487.203125 C 77.019531 487.203125 105.839844 487.203125 119.972656 487.203125 C 122.140625 487.203125 124.21875 488.066406 125.753906 489.601562 C 127.289062 491.132812 128.152344 493.214844 128.152344 495.382812 C 128.152344 496.191406 128.152344 497.011719 128.152344 497.816406 C 128.152344 499.988281 127.289062 502.066406 125.753906 503.601562 C 124.21875 505.136719 122.140625 505.996094 119.972656 505.996094 C 105.839844 505.996094 77.019531 505.996094 62.886719 505.996094 C 60.71875 505.996094 58.636719 505.136719 57.101562 503.601562 C 55.570312 502.066406 54.707031 499.988281 54.707031 497.816406 C 54.707031 497.011719 54.707031 496.191406 54.707031 495.382812 Z M 54.707031 495.382812 " fill-opacity="1" fill-rule="evenodd"/><path fill="#203745" d="M 228.753906 222.125 C 228.753906 222.984375 228.839844 223.839844 229.007812 224.6875 C 229.175781 225.53125 229.425781 226.355469 229.753906 227.152344 C 230.085938 227.949219 230.492188 228.703125 230.96875 229.421875 C 231.449219 230.140625 231.992188 230.800781 232.601562 231.414062 C 233.214844 232.023438 233.875 232.566406 234.59375 233.046875 C 235.3125 233.527344 236.070312 233.929688 236.867188 234.261719 C 237.664062 234.589844 238.484375 234.839844 239.328125 235.007812 C 240.175781 235.175781 241.03125 235.261719 241.894531 235.261719 C 242.753906 235.261719 243.609375 235.175781 244.457031 235.007812 C 245.300781 234.839844 246.125 234.589844 246.921875 234.261719 C 247.71875 233.929688 248.472656 233.527344 249.191406 233.046875 C 249.910156 232.566406 250.570312 232.023438 251.183594 231.414062 C 251.792969 230.800781 252.335938 230.140625 252.816406 229.421875 C 253.292969 228.703125 253.699219 227.949219 254.03125 227.152344 C 254.359375 226.355469 254.609375 225.53125 254.777344 224.6875 C 254.945312 223.839844 255.03125 222.984375 255.03125 222.125 C 255.03125 221.261719 254.945312 220.40625 254.777344 219.558594 C 254.609375 218.714844 254.359375 217.894531 254.03125 217.097656 C 253.699219 216.300781 253.292969 215.542969 252.816406 214.824219 C 252.335938 214.109375 251.792969 213.445312 251.183594 212.832031 C 250.570312 212.222656 249.910156 211.679688 249.191406 211.199219 C 248.472656 210.722656 247.71875 210.316406 246.921875 209.984375 C 246.125 209.65625 245.300781 209.40625 244.457031 209.238281 C 243.609375 209.070312 242.753906 208.984375 241.894531 208.984375 C 241.03125 208.984375 240.175781 209.070312 239.328125 209.238281 C 238.484375 209.40625 237.664062 209.65625 236.867188 209.984375 C 236.070312 210.316406 235.3125 210.722656 234.59375 211.199219 C 233.875 211.679688 233.214844 212.222656 232.601562 212.832031 C 231.992188 213.445312 231.449219 214.109375 230.96875 214.824219 C 230.492188 215.542969 230.085938 216.300781 229.753906 217.097656 C 229.425781 217.894531 229.175781 218.714844 229.007812 219.558594 C 228.839844 220.40625 228.753906 221.261719 228.753906 222.125 Z M 228.753906 222.125 " fill-opacity="1" fill-rule="nonzero"/><path fill="#203745" d="M 111.324219 337.945312 C 111.324219 338.808594 111.410156 339.664062 111.578125 340.507812 C 111.746094 341.355469 111.996094 342.175781 112.324219 342.972656 C 112.65625 343.769531 113.058594 344.527344 113.539062 345.246094 C 114.019531 345.960938 114.5625 346.625 115.171875 347.234375 C 115.78125 347.84375 116.445312 348.390625 117.164062 348.871094 C 117.878906 349.347656 118.636719 349.753906 119.433594 350.082031 C 120.230469 350.414062 121.050781 350.664062 121.898438 350.832031 C 122.746094 351 123.597656 351.082031 124.460938 351.082031 C 125.324219 351.082031 126.179688 351 127.023438 350.832031 C 127.871094 350.664062 128.691406 350.414062 129.488281 350.082031 C 130.285156 349.753906 131.042969 349.347656 131.761719 348.871094 C 132.476562 348.390625 133.140625 347.84375 133.75 347.234375 C 134.359375 346.625 134.90625 345.960938 135.382812 345.246094 C 135.863281 344.527344 136.269531 343.769531 136.597656 342.972656 C 136.929688 342.175781 137.179688 341.355469 137.347656 340.507812 C 137.515625 339.664062 137.597656 338.808594 137.597656 337.945312 C 137.597656 337.082031 137.515625 336.230469 137.347656 335.382812 C 137.179688 334.539062 136.929688 333.714844 136.597656 332.917969 C 136.269531 332.121094 135.863281 331.363281 135.382812 330.648438 C 134.90625 329.929688 134.359375 329.265625 133.75 328.65625 C 133.140625 328.046875 132.476562 327.503906 131.761719 327.023438 C 131.042969 326.542969 130.285156 326.140625 129.488281 325.808594 C 128.691406 325.480469 127.871094 325.230469 127.023438 325.0625 C 126.179688 324.894531 125.324219 324.808594 124.460938 324.808594 C 123.597656 324.808594 122.746094 324.894531 121.898438 325.0625 C 121.050781 325.230469 120.230469 325.480469 119.433594 325.808594 C 118.636719 326.140625 117.878906 326.542969 117.164062 327.023438 C 116.445312 327.503906 115.78125 328.046875 115.171875 328.65625 C 114.5625 329.265625 114.019531 329.929688 113.539062 330.648438 C 113.058594 331.363281 112.65625 332.121094 112.324219 332.917969 C 111.996094 333.714844 111.746094 334.539062 111.578125 335.382812 C 111.410156 336.230469 111.324219 337.082031 111.324219 337.945312 Z M 111.324219 337.945312 " fill-opacity="1" fill-rule="nonzero"/><path fill="#203745" d="M 95.867188 656.148438 C 95.867188 657.007812 95.953125 657.863281 96.121094 658.710938 C 96.289062 659.554688 96.539062 660.378906 96.867188 661.175781 C 97.199219 661.972656 97.601562 662.726562 98.082031 663.445312 C 98.5625 664.164062 99.105469 664.824219 99.714844 665.4375 C 100.324219 666.046875 100.988281 666.589844 101.707031 667.070312 C 102.425781 667.550781 103.179688 667.953125 103.976562 668.285156 C 104.773438 668.613281 105.597656 668.863281 106.441406 669.03125 C 107.289062 669.199219 108.144531 669.285156 109.003906 669.285156 C 109.867188 669.285156 110.722656 669.199219 111.566406 669.03125 C 112.414062 668.863281 113.234375 668.613281 114.03125 668.285156 C 114.828125 667.953125 115.585938 667.550781 116.304688 667.070312 C 117.019531 666.589844 117.683594 666.046875 118.292969 665.4375 C 118.90625 664.824219 119.449219 664.164062 119.929688 663.445312 C 120.40625 662.726562 120.8125 661.972656 121.140625 661.175781 C 121.472656 660.378906 121.722656 659.554688 121.890625 658.710938 C 122.058594 657.863281 122.140625 657.007812 122.140625 656.148438 C 122.140625 655.285156 122.058594 654.429688 121.890625 653.582031 C 121.722656 652.738281 121.472656 651.917969 121.140625 651.121094 C 120.8125 650.324219 120.40625 649.566406 119.929688 648.847656 C 119.449219 648.132812 118.90625 647.46875 118.292969 646.859375 C 117.683594 646.246094 117.019531 645.703125 116.304688 645.222656 C 115.585938 644.746094 114.828125 644.339844 114.03125 644.011719 C 113.234375 643.679688 112.414062 643.429688 111.566406 643.261719 C 110.722656 643.09375 109.867188 643.011719 109.003906 643.011719 C 108.144531 643.011719 107.289062 643.09375 106.441406 643.261719 C 105.597656 643.429688 104.773438 643.679688 103.976562 644.011719 C 103.179688 644.339844 102.425781 644.746094 101.707031 645.222656 C 100.988281 645.703125 100.324219 646.246094 99.714844 646.859375 C 99.105469 647.46875 98.5625 648.132812 98.082031 648.847656 C 97.601562 649.566406 97.199219 650.324219 96.867188 651.121094 C 96.539062 651.917969 96.289062 652.738281 96.121094 653.582031 C 95.953125 654.429688 95.867188 655.285156 95.867188 656.148438 Z M 95.867188 656.148438 " fill-opacity="1" fill-rule="nonzero"/><path fill="#203745" d="M 217.820312 788.441406 C 217.820312 789.300781 217.90625 790.15625 218.074219 791.003906 C 218.242188 791.847656 218.488281 792.671875 218.820312 793.46875 C 219.152344 794.265625 219.554688 795.019531 220.035156 795.738281 C 220.511719 796.457031 221.058594 797.121094 221.667969 797.730469 C 222.277344 798.339844 222.941406 798.882812 223.660156 799.363281 C 224.375 799.84375 225.132812 800.246094 225.929688 800.578125 C 226.726562 800.90625 227.546875 801.15625 228.394531 801.324219 C 229.242188 801.492188 230.09375 801.578125 230.957031 801.578125 C 231.820312 801.578125 232.675781 801.492188 233.519531 801.324219 C 234.367188 801.15625 235.1875 800.90625 235.984375 800.578125 C 236.78125 800.246094 237.539062 799.84375 238.253906 799.363281 C 238.972656 798.882812 239.636719 798.339844 240.246094 797.730469 C 240.855469 797.121094 241.402344 796.457031 241.878906 795.738281 C 242.359375 795.019531 242.765625 794.265625 243.09375 793.46875 C 243.425781 792.671875 243.671875 791.847656 243.84375 791.003906 C 244.011719 790.15625 244.09375 789.300781 244.09375 788.441406 C 244.09375 787.578125 244.011719 786.722656 243.84375 785.878906 C 243.671875 785.03125 243.425781 784.210938 243.09375 783.414062 C 242.765625 782.617188 242.359375 781.859375 241.878906 781.140625 C 241.402344 780.425781 240.855469 779.761719 240.246094 779.152344 C 239.636719 778.539062 238.972656 777.996094 238.257812 777.515625 C 237.539062 777.039062 236.78125 776.632812 235.984375 776.304688 C 235.1875 775.972656 234.367188 775.722656 233.519531 775.554688 C 232.675781 775.386719 231.820312 775.304688 230.957031 775.304688 C 230.09375 775.304688 229.242188 775.386719 228.394531 775.554688 C 227.546875 775.722656 226.726562 775.972656 225.929688 776.304688 C 225.132812 776.632812 224.375 777.039062 223.660156 777.515625 C 222.941406 777.996094 222.277344 778.539062 221.667969 779.152344 C 221.058594 779.761719 220.511719 780.425781 220.035156 781.140625 C 219.554688 781.859375 219.152344 782.617188 218.820312 783.414062 C 218.488281 784.210938 218.242188 785.03125 218.074219 785.878906 C 217.90625 786.722656 217.820312 787.578125 217.820312 788.441406 Z M 217.820312 788.441406 " fill-opacity="1" fill-rule="nonzero"/><path fill="#203745" d="M 403.78125 782.664062 C 401.613281 782.664062 399.53125 783.527344 397.996094 785.058594 C 396.464844 786.59375 395.601562 788.675781 395.601562 790.84375 C 395.601562 804.976562 395.601562 833.796875 395.601562 847.929688 C 395.601562 850.097656 396.464844 852.179688 397.996094 853.710938 C 399.53125 855.246094 401.613281 856.109375 403.78125 856.109375 C 404.589844 856.109375 405.40625 856.109375 406.214844 856.109375 C 408.382812 856.109375 410.464844 855.246094 411.996094 853.710938 C 413.53125 852.179688 414.394531 850.097656 414.394531 847.929688 L 414.394531 790.84375 C 414.394531 788.675781 413.53125 786.59375 411.996094 785.058594 C 410.464844 783.527344 408.382812 782.664062 406.214844 782.664062 C 405.40625 782.664062 404.589844 782.664062 403.78125 782.664062 Z M 403.78125 782.664062 " fill-opacity="1" fill-rule="evenodd"/><path fill="#203745" d="M 419.296875 507.195312 C 416.128906 504.566406 411.429688 505.003906 408.800781 508.171875 C 408.273438 508.804688 407.738281 509.449219 407.210938 510.085938 C 404.582031 513.253906 405.019531 517.949219 408.1875 520.582031 C 443.585938 549.960938 631.96875 706.328125 667.367188 735.707031 C 670.535156 738.335938 675.234375 737.902344 677.863281 734.734375 C 678.390625 734.097656 678.925781 733.453125 679.449219 732.820312 C 682.078125 729.652344 681.644531 724.953125 678.476562 722.324219 C 643.078125 692.941406 454.695312 536.578125 419.296875 507.195312 Z M 419.296875 507.195312 " fill-opacity="1" fill-rule="evenodd"/><path fill="#203745" d="M 358.351562 309.417969 C 357.292969 305.859375 354.863281 302.871094 351.597656 301.105469 C 348.332031 299.339844 344.496094 298.945312 340.941406 300.003906 L 336.339844 301.375 C 332.78125 302.4375 329.789062 304.867188 328.023438 308.132812 C 326.257812 311.398438 325.863281 315.234375 326.925781 318.789062 L 380.484375 498.414062 C 381.546875 501.972656 383.976562 504.960938 387.242188 506.726562 C 390.507812 508.492188 394.34375 508.890625 397.902344 507.828125 L 402.5 506.457031 C 406.058594 505.394531 409.050781 502.964844 410.816406 499.699219 C 412.582031 496.433594 412.976562 492.601562 411.914062 489.042969 Z M 358.351562 309.417969 " fill-opacity="1" fill-rule="evenodd"/><path fill="#203745" d="M 440.738281 505.996094 C 440.738281 507.167969 440.679688 508.335938 440.566406 509.5 C 440.453125 510.664062 440.28125 511.820312 440.050781 512.96875 C 439.824219 514.117188 439.539062 515.25 439.199219 516.371094 C 438.859375 517.492188 438.464844 518.59375 438.019531 519.671875 C 437.570312 520.753906 437.070312 521.8125 436.519531 522.84375 C 435.964844 523.875 435.367188 524.878906 434.714844 525.851562 C 434.066406 526.824219 433.367188 527.765625 432.625 528.671875 C 431.882812 529.574219 431.097656 530.441406 430.269531 531.269531 C 429.441406 532.097656 428.578125 532.882812 427.671875 533.625 C 426.765625 534.367188 425.828125 535.0625 424.855469 535.714844 C 423.882812 536.363281 422.878906 536.964844 421.847656 537.515625 C 420.8125 538.070312 419.757812 538.570312 418.675781 539.015625 C 417.59375 539.464844 416.492188 539.859375 415.371094 540.199219 C 414.253906 540.539062 413.117188 540.820312 411.96875 541.050781 C 410.824219 541.277344 409.664062 541.449219 408.5 541.566406 C 407.335938 541.679688 406.167969 541.738281 404.996094 541.738281 C 403.828125 541.738281 402.660156 541.679688 401.496094 541.566406 C 400.328125 541.449219 399.171875 541.277344 398.023438 541.050781 C 396.878906 540.820312 395.742188 540.539062 394.621094 540.199219 C 393.503906 539.859375 392.402344 539.464844 391.320312 539.015625 C 390.238281 538.570312 389.183594 538.070312 388.148438 537.515625 C 387.117188 536.964844 386.113281 536.363281 385.140625 535.714844 C 384.167969 535.0625 383.230469 534.367188 382.324219 533.625 C 381.417969 532.882812 380.554688 532.097656 379.726562 531.269531 C 378.898438 530.441406 378.113281 529.574219 377.371094 528.671875 C 376.628906 527.765625 375.929688 526.824219 375.28125 525.851562 C 374.628906 524.878906 374.027344 523.875 373.476562 522.84375 C 372.925781 521.8125 372.425781 520.753906 371.976562 519.671875 C 371.53125 518.59375 371.136719 517.492188 370.796875 516.371094 C 370.457031 515.25 370.171875 514.117188 369.945312 512.96875 C 369.714844 511.820312 369.542969 510.664062 369.429688 509.5 C 369.316406 508.335938 369.257812 507.167969 369.257812 505.996094 C 369.257812 504.824219 369.316406 503.65625 369.429688 502.492188 C 369.542969 501.328125 369.714844 500.171875 369.945312 499.023438 C 370.171875 497.875 370.457031 496.742188 370.796875 495.621094 C 371.136719 494.5 371.53125 493.402344 371.976562 492.320312 C 372.425781 491.238281 372.925781 490.179688 373.476562 489.148438 C 374.027344 488.117188 374.628906 487.113281 375.28125 486.140625 C 375.929688 485.167969 376.628906 484.226562 377.371094 483.324219 C 378.113281 482.417969 378.898438 481.550781 379.726562 480.722656 C 380.554688 479.894531 381.417969 479.109375 382.324219 478.367188 C 383.230469 477.625 384.167969 476.929688 385.140625 476.277344 C 386.113281 475.628906 387.117188 475.027344 388.148438 474.476562 C 389.183594 473.925781 390.238281 473.425781 391.320312 472.976562 C 392.402344 472.527344 393.503906 472.132812 394.621094 471.792969 C 395.742188 471.457031 396.878906 471.171875 398.023438 470.941406 C 399.171875 470.714844 400.328125 470.542969 401.496094 470.429688 C 402.660156 470.3125 403.828125 470.257812 404.996094 470.257812 C 406.167969 470.257812 407.335938 470.3125 408.5 470.429688 C 409.664062 470.542969 410.824219 470.714844 411.96875 470.941406 C 413.117188 471.171875 414.253906 471.457031 415.371094 471.792969 C 416.492188 472.132812 417.59375 472.527344 418.675781 472.976562 C 419.757812 473.425781 420.8125 473.925781 421.847656 474.476562 C 422.878906 475.027344 423.882812 475.628906 424.855469 476.277344 C 425.828125 476.929688 426.765625 477.625 427.671875 478.367188 C 428.578125 479.109375 429.441406 479.894531 430.269531 480.722656 C 431.097656 481.550781 431.882812 482.417969 432.625 483.324219 C 433.367188 484.226562 434.066406 485.167969 434.714844 486.140625 C 435.367188 487.113281 435.964844 488.117188 436.519531 489.148438 C 437.070312 490.179688 437.570312 491.238281 438.019531 492.320312 C 438.464844 493.402344 438.859375 494.5 439.199219 495.621094 C 439.539062 496.742188 439.824219 497.875 440.050781 499.023438 C 440.28125 500.171875 440.453125 501.328125 440.566406 502.492188 C 440.679688 503.65625 440.738281 504.824219 440.738281 505.996094 Z M 440.738281 505.996094 " fill-opacity="1" fill-rule="nonzero"/><path fill="#ff850a" d="M 429.082031 505.996094 C 429.082031 506.785156 429.042969 507.574219 428.964844 508.359375 C 428.890625 509.144531 428.773438 509.921875 428.617188 510.695312 C 428.464844 511.46875 428.273438 512.234375 428.042969 512.988281 C 427.816406 513.742188 427.550781 514.484375 427.25 515.214844 C 426.945312 515.941406 426.609375 516.65625 426.238281 517.351562 C 425.867188 518.046875 425.460938 518.722656 425.023438 519.378906 C 424.585938 520.035156 424.117188 520.667969 423.613281 521.277344 C 423.113281 521.886719 422.585938 522.46875 422.027344 523.027344 C 421.46875 523.585938 420.886719 524.113281 420.277344 524.617188 C 419.667969 525.117188 419.035156 525.585938 418.378906 526.023438 C 417.722656 526.460938 417.046875 526.867188 416.351562 527.238281 C 415.65625 527.609375 414.941406 527.945312 414.214844 528.25 C 413.484375 528.550781 412.742188 528.816406 411.988281 529.046875 C 411.234375 529.273438 410.46875 529.464844 409.695312 529.621094 C 408.921875 529.773438 408.144531 529.890625 407.359375 529.964844 C 406.574219 530.042969 405.785156 530.082031 404.996094 530.082031 C 404.207031 530.082031 403.421875 530.042969 402.636719 529.964844 C 401.851562 529.890625 401.070312 529.773438 400.296875 529.621094 C 399.523438 529.464844 398.761719 529.273438 398.003906 529.046875 C 397.25 528.816406 396.507812 528.550781 395.78125 528.25 C 395.050781 527.945312 394.339844 527.609375 393.644531 527.238281 C 392.949219 526.867188 392.273438 526.460938 391.617188 526.023438 C 390.960938 525.585938 390.328125 525.117188 389.71875 524.617188 C 389.109375 524.113281 388.523438 523.585938 387.964844 523.027344 C 387.410156 522.46875 386.878906 521.886719 386.378906 521.277344 C 385.878906 520.667969 385.410156 520.035156 384.972656 519.378906 C 384.53125 518.722656 384.128906 518.046875 383.753906 517.351562 C 383.382812 516.65625 383.046875 515.941406 382.746094 515.214844 C 382.441406 514.484375 382.179688 513.742188 381.949219 512.988281 C 381.71875 512.234375 381.527344 511.46875 381.375 510.695312 C 381.21875 509.921875 381.105469 509.144531 381.027344 508.359375 C 380.949219 507.574219 380.910156 506.785156 380.910156 505.996094 C 380.910156 505.207031 380.949219 504.421875 381.027344 503.636719 C 381.105469 502.851562 381.21875 502.070312 381.375 501.296875 C 381.527344 500.523438 381.71875 499.761719 381.949219 499.003906 C 382.179688 498.25 382.441406 497.507812 382.746094 496.78125 C 383.046875 496.050781 383.382812 495.339844 383.753906 494.644531 C 384.128906 493.949219 384.53125 493.273438 384.972656 492.617188 C 385.410156 491.960938 385.878906 491.328125 386.378906 490.71875 C 386.878906 490.109375 387.410156 489.523438 387.964844 488.964844 C 388.523438 488.410156 389.109375 487.878906 389.71875 487.378906 C 390.328125 486.878906 390.960938 486.410156 391.617188 485.972656 C 392.273438 485.53125 392.949219 485.128906 393.644531 484.757812 C 394.339844 484.382812 395.050781 484.046875 395.78125 483.746094 C 396.507812 483.445312 397.25 483.179688 398.003906 482.949219 C 398.761719 482.71875 399.523438 482.527344 400.296875 482.375 C 401.070312 482.222656 401.851562 482.105469 402.636719 482.027344 C 403.421875 481.949219 404.207031 481.910156 404.996094 481.910156 C 405.785156 481.910156 406.574219 481.949219 407.359375 482.027344 C 408.144531 482.105469 408.921875 482.222656 409.695312 482.375 C 410.46875 482.527344 411.234375 482.71875 411.988281 482.949219 C 412.742188 483.179688 413.484375 483.445312 414.214844 483.746094 C 414.941406 484.046875 415.65625 484.382812 416.351562 484.757812 C 417.046875 485.128906 417.722656 485.53125 418.378906 485.972656 C 419.035156 486.410156 419.667969 486.878906 420.277344 487.378906 C 420.886719 487.878906 421.46875 488.410156 422.027344 488.964844 C 422.585938 489.523438 423.113281 490.109375 423.613281 490.71875 C 424.113281 491.328125 424.585938 491.960938 425.023438 492.617188 C 425.460938 493.273438 425.867188 493.949219 426.238281 494.644531 C 426.609375 495.339844 426.945312 496.050781 427.25 496.78125 C 427.550781 497.507812 427.816406 498.25 428.042969 499.003906 C 428.273438 499.761719 428.464844 500.523438 428.617188 501.296875 C 428.773438 502.070312 428.890625 502.851562 428.964844 503.636719 C 429.042969 504.421875 429.082031 505.207031 429.082031 505.996094 Z M 429.082031 505.996094 " fill-opacity="1" fill-rule="nonzero"/><path fill="#ff850a" d="M 532.59375 800.574219 C 532.96875 801.394531 533.648438 802.035156 534.492188 802.351562 C 535.335938 802.671875 536.269531 802.640625 537.089844 802.265625 C 537.347656 802.152344 537.609375 802.03125 537.867188 801.914062 C 538.6875 801.542969 539.328125 800.863281 539.644531 800.019531 C 539.964844 799.175781 539.933594 798.238281 539.5625 797.417969 C 526.230469 767.996094 422.054688 538.023438 408.726562 508.601562 C 408.355469 507.78125 407.671875 507.140625 406.828125 506.824219 C 405.984375 506.507812 405.050781 506.539062 404.230469 506.910156 C 403.972656 507.027344 403.710938 507.144531 403.453125 507.261719 C 402.632812 507.632812 401.992188 508.316406 401.675781 509.160156 C 401.359375 510 401.390625 510.9375 401.761719 511.757812 C 415.089844 541.179688 519.265625 771.152344 532.59375 800.574219 Z M 532.59375 800.574219 " fill-opacity="1" fill-rule="evenodd"/></svg>