<svg xmlns="http://www.w3.org/2000/svg" xmlns:xlink="http://www.w3.org/1999/xlink" width="1080" zoomAndPan="magnify" viewBox="0 0 810 1012.49997" height="1350" preserveAspectRatio="xMidYMid meet" version="1.0"><defs><clipPath id="33c8d4cd72"><path d="M 220 456 L 266 456 L 266 703.949219 L 220 703.949219 Z M 220 456 " clip-rule="nonzero"/></clipPath><clipPath id="51f6e59063"><path d="M 542 456 L 588 456 L 588 703.949219 L 542 703.949219 Z M 542 456 " clip-rule="nonzero"/></clipPath><clipPath id="135ba8cac3"><path d="M 131 557 L 168 557 L 168 703.949219 L 131 703.949219 Z M 131 557 " clip-rule="nonzero"/></clipPath><clipPath id="93049c000c"><path d="M 37 557 L 74 557 L 74 703.949219 L 37 703.949219 Z M 37 557 " clip-rule="nonzero"/></clipPath><clipPath id="a5cb7f444a"><path d="M 642 557 L 679 557 L 679 703.949219 L 642 703.949219 Z M 642 557 " clip-rule="nonzero"/></clipPath><clipPath id="3bd997a725"><path d="M 736 557 L 773 557 L 773 703.949219 L 736 703.949219 Z M 736 557 " clip-rule="nonzero"/></clipPath></defs><g clip-path="url(#33c8d4cd72)"><path fill="#000000" d="M 265.441406 456.894531 L 220.558594 456.894531 L 222.761719 703.761719 L 237.90625 703.761719 Z M 265.441406 456.894531 " fill-opacity="1" fill-rule="nonzero"/></g><path fill="#000000" d="M 182.769531 420.554688 L 625.257812 420.554688 L 625.257812 451.664062 L 182.769531 451.664062 Z M 182.769531 420.554688 " fill-opacity="1" fill-rule="nonzero"/><g clip-path="url(#51f6e59063)"><path fill="#000000" d="M 542.394531 456.894531 L 587.28125 456.894531 L 585.078125 703.761719 L 569.929688 703.761719 Z M 542.394531 456.894531 " fill-opacity="1" fill-rule="nonzero"/></g><path fill="#000000" d="M 42.734375 311.597656 C 32.800781 312.128906 45.105469 308.300781 19.882812 318.140625 C 0.199219 325.820312 12.742188 477.808594 14.066406 515.976562 C 23.070312 511.246094 32.363281 509.679688 41.554688 509.222656 C 51.359375 509.058594 62.582031 512.601562 72.167969 517.746094 C 49.585938 481.902344 50.242188 463.964844 42.734375 311.59375 Z M 42.734375 311.597656 " fill-opacity="1" fill-rule="nonzero"/><path fill="#000000" d="M 21.648438 508.523438 C 69.554688 493.785156 145.519531 494.507812 183.714844 508.523438 C 200.84375 514.808594 183.714844 551.230469 183.714844 551.230469 L 21.648438 551.230469 C 21.648438 551.230469 4.003906 513.953125 21.648438 508.523438 Z M 21.648438 508.523438 " fill-opacity="1" fill-rule="nonzero"/><g clip-path="url(#135ba8cac3)"><path fill="#000000" d="M 131.386719 557.703125 L 167.445312 557.703125 L 165.675781 703.765625 L 153.507812 703.765625 Z M 131.386719 557.703125 " fill-opacity="1" fill-rule="nonzero"/></g><g clip-path="url(#93049c000c)"><path fill="#000000" d="M 73.75 557.703125 L 37.6875 557.703125 L 39.457031 703.765625 L 51.625 703.765625 Z M 73.75 557.703125 " fill-opacity="1" fill-rule="nonzero"/></g><path fill="#000000" d="M 767.328125 311.597656 C 777.261719 312.128906 764.957031 308.300781 790.175781 318.140625 C 809.863281 325.820312 797.320312 477.808594 795.992188 515.976562 C 786.992188 511.246094 777.699219 509.679688 768.507812 509.222656 C 758.699219 509.058594 747.480469 512.601562 737.894531 517.746094 C 760.476562 481.902344 759.816406 463.964844 767.328125 311.59375 Z M 767.328125 311.597656 " fill-opacity="1" fill-rule="nonzero"/><path fill="#000000" d="M 788.414062 508.523438 C 740.507812 493.785156 664.542969 494.507812 626.34375 508.523438 C 609.21875 514.808594 626.34375 551.230469 626.34375 551.230469 L 788.414062 551.230469 C 788.414062 551.230469 806.058594 513.953125 788.414062 508.523438 Z M 788.414062 508.523438 " fill-opacity="1" fill-rule="nonzero"/><g clip-path="url(#a5cb7f444a)"><path fill="#000000" d="M 678.675781 557.703125 L 642.617188 557.703125 L 644.386719 703.765625 L 656.554688 703.765625 Z M 678.675781 557.703125 " fill-opacity="1" fill-rule="nonzero"/></g><g clip-path="url(#3bd997a725)"><path fill="#000000" d="M 736.3125 557.703125 L 772.371094 557.703125 L 770.601562 703.765625 L 758.433594 703.765625 Z M 736.3125 557.703125 " fill-opacity="1" fill-rule="nonzero"/></g></svg>