<svg xmlns="http://www.w3.org/2000/svg" xmlns:xlink="http://www.w3.org/1999/xlink" width="1080" zoomAndPan="magnify" viewBox="0 0 810 1012.49997" height="1350" preserveAspectRatio="xMidYMid meet" version="1.0"><defs><clipPath id="fcfd468e52"><path d="M 0.199219 259 L 302 259 L 302 498 L 0.199219 498 Z M 0.199219 259 " clip-rule="nonzero"/></clipPath><clipPath id="e8de7e339f"><path d="M 89 156.015625 L 809.800781 156.015625 L 809.800781 856.171875 L 89 856.171875 Z M 89 156.015625 " clip-rule="nonzero"/></clipPath></defs><path fill="#000000" d="M 43.945312 529.292969 C 78.480469 528.890625 113.0625 529.277344 147.601562 529.265625 C 156.679688 529.261719 188.941406 528.15625 195.601562 530.03125 C 197.375 530.53125 198.984375 531.554688 199.824219 533.230469 C 200.476562 534.527344 200.292969 536.160156 199.878906 537.496094 C 199.132812 539.894531 197.785156 540.621094 195.695312 541.78125 C 184.132812 542.234375 172.503906 541.789062 160.9375 541.777344 L 93.410156 541.753906 L 64.183594 541.773438 C 58.515625 541.804688 49.605469 542.898438 44.28125 541.417969 C 42.445312 540.910156 40.660156 539.617188 39.773438 537.910156 C 38.988281 536.40625 38.996094 534.722656 39.613281 533.160156 C 40.46875 530.996094 41.929688 530.253906 43.945312 529.292969 Z M 43.945312 529.292969 " fill-opacity="1" fill-rule="nonzero"/><g clip-path="url(#fcfd468e52)"><path fill="#000000" d="M 279.425781 259.726562 C 283.050781 259.734375 286.6875 259.621094 290.304688 259.707031 C 294.582031 259.8125 297.523438 260.753906 300.496094 263.84375 L 300.488281 454.351562 C 300.527344 464.390625 301.363281 474.417969 301.351562 484.441406 C 301.347656 487.214844 301.488281 493.355469 299.453125 495.316406 C 298.371094 496.355469 297.0625 497.003906 295.554688 497.125 C 285.523438 497.914062 275.140625 497.347656 265.074219 497.304688 L 207.65625 497.082031 L 23.914062 497.21875 C 17.960938 497.34375 7.382812 498.855469 2.5625 495.242188 C 1.160156 492.761719 0.792969 489.757812 0.675781 486.941406 C 0.167969 474.546875 0.605469 461.964844 0.632812 449.558594 L 0.757812 379.71875 L 0.742188 311.746094 C 0.691406 298.367188 0.191406 284.847656 0.679688 271.484375 C 0.757812 269.230469 0.808594 264.160156 2.4375 262.511719 C 4.289062 260.644531 7.359375 260.574219 9.863281 260.417969 C 20.21875 259.769531 30.867188 260.21875 41.25 260.214844 L 99.882812 260.234375 Z M 13.242188 272.238281 C 12.8125 343.15625 12.839844 414.070312 13.324219 484.984375 C 27.484375 485.273438 41.679688 485.019531 55.84375 484.96875 L 131.75 484.75 C 184.09375 485.273438 236.4375 485.34375 288.785156 484.957031 L 288.699219 413.445312 L 288.722656 322.910156 C 288.738281 306.023438 289.023438 289.085938 288.6875 272.207031 L 200.894531 272.363281 C 200.402344 287.535156 200.78125 302.816406 200.792969 318.003906 C 200.796875 324.378906 201.210938 330.992188 200.640625 337.324219 C 200.5 338.917969 200.394531 340.949219 199.277344 342.195312 C 197.964844 343.664062 195.492188 343.960938 193.660156 344.105469 C 182.347656 344.996094 170.609375 343.890625 159.238281 343.863281 C 142.917969 343.828125 126.4375 344.621094 110.140625 344.078125 C 108.070312 344.007812 103.882812 343.957031 102.417969 342.363281 C 101.035156 340.859375 100.671875 336.8125 100.523438 334.746094 C 100.019531 327.675781 100.730469 320.355469 100.796875 313.261719 L 100.902344 272.28125 C 83.371094 272.148438 65.835938 272.121094 48.300781 272.199219 C 36.628906 272.191406 24.90625 271.785156 13.242188 272.238281 Z M 113.015625 272.058594 C 112.648438 277.117188 112.761719 282.1875 112.664062 287.257812 C 112.464844 302.0625 112.449219 316.867188 112.609375 331.671875 C 137.890625 332.210938 163.292969 331.996094 188.582031 331.9375 L 188.925781 297.492188 C 188.925781 289.167969 188.460938 280.554688 189.203125 272.265625 L 128.902344 272.074219 C 123.625 272.007812 118.277344 272.261719 113.015625 272.058594 Z M 113.015625 272.058594 " fill-opacity="1" fill-rule="nonzero"/></g><g clip-path="url(#e8de7e339f)"><path fill="#000000" d="M 497.464844 156.824219 C 513.8125 155.976562 529.746094 159.871094 542.996094 169.722656 C 543.441406 170.054688 543.882812 170.394531 544.324219 170.738281 C 544.761719 171.082031 545.195312 171.429688 545.625 171.785156 C 546.054688 172.140625 546.480469 172.5 546.902344 172.867188 C 547.320312 173.230469 547.738281 173.601562 548.148438 173.976562 C 548.5625 174.351562 548.96875 174.734375 549.371094 175.117188 C 549.773438 175.503906 550.167969 175.894531 550.5625 176.292969 C 550.953125 176.6875 551.339844 177.085938 551.722656 177.492188 C 552.105469 177.898438 552.480469 178.308594 552.851562 178.722656 C 553.226562 179.140625 553.59375 179.558594 553.953125 179.984375 C 554.316406 180.40625 554.671875 180.835938 555.019531 181.269531 C 555.371094 181.703125 555.71875 182.140625 556.058594 182.582031 C 556.398438 183.023438 556.730469 183.46875 557.058594 183.917969 C 557.386719 184.367188 557.710938 184.824219 558.027344 185.28125 C 558.34375 185.738281 558.65625 186.199219 558.960938 186.667969 C 559.269531 187.132812 559.566406 187.601562 559.863281 188.074219 C 560.15625 188.550781 560.441406 189.027344 560.726562 189.507812 C 561.007812 189.988281 561.28125 190.472656 561.550781 190.960938 C 561.820312 191.449219 562.085938 191.9375 562.34375 192.433594 C 562.601562 192.925781 562.851562 193.425781 563.097656 193.925781 C 563.34375 194.425781 563.582031 194.929688 563.8125 195.433594 C 564.046875 195.941406 564.273438 196.449219 564.492188 196.964844 C 564.710938 197.476562 564.925781 197.988281 565.132812 198.507812 C 565.335938 199.023438 565.539062 199.542969 565.730469 200.066406 C 565.925781 200.589844 566.113281 201.113281 566.292969 201.640625 C 566.472656 202.167969 566.648438 202.699219 566.816406 203.230469 C 566.984375 203.761719 567.144531 204.292969 567.296875 204.832031 C 567.453125 205.367188 567.597656 205.902344 567.738281 206.441406 C 567.878906 206.980469 568.015625 207.523438 568.140625 208.066406 C 568.269531 208.609375 568.390625 209.152344 568.5 209.699219 C 568.613281 210.242188 568.722656 210.789062 568.820312 211.339844 C 568.921875 211.886719 569.015625 212.4375 569.101562 212.988281 C 569.1875 213.539062 569.265625 214.089844 569.335938 214.640625 C 570.027344 219.648438 571.574219 233.640625 568.515625 237.324219 C 566.441406 239.820312 562.714844 239.832031 559.75 240.171875 C 559.34375 252.785156 561.171875 264.847656 556.929688 277.121094 C 553.214844 287.882812 546.15625 296.539062 535.828125 301.515625 C 526.097656 306.207031 515.980469 305.445312 506 301.988281 C 502.90625 309.566406 499.960938 315.101562 492.679688 319.382812 C 500.535156 334.34375 508.984375 348.789062 517.8125 363.191406 C 521.703125 369.539062 525.742188 377.550781 531.164062 382.667969 C 535.121094 386.398438 540.445312 388.707031 545.203125 391.234375 L 567.351562 403.089844 C 572.917969 406.03125 578.929688 408.773438 584 412.503906 C 586.125 414.066406 587.765625 415.722656 589.246094 417.921875 C 599.195312 418.839844 609.003906 420.8125 616.554688 427.878906 C 621.730469 432.722656 623.96875 438.855469 624.160156 445.832031 C 624.40625 454.695312 620.75 461.8125 614.730469 468.117188 C 626.933594 468.753906 639.304688 468.457031 651.53125 468.550781 C 651.679688 449.675781 651.679688 430.800781 651.527344 411.921875 C 645.578125 414.152344 627.636719 424.242188 622.042969 421.777344 C 620.476562 421.085938 618.492188 419.566406 618.015625 417.835938 C 617.660156 416.554688 618.144531 415.292969 618.867188 414.246094 C 620.054688 412.515625 621.789062 411.171875 623.554688 410.082031 C 628.035156 407.324219 650.621094 397.136719 655.800781 396.300781 C 657.6875 396 659.839844 396.082031 661.410156 397.292969 C 663.140625 398.625 663.273438 400.914062 663.449219 402.941406 C 663.871094 407.816406 663.664062 412.875 663.695312 417.769531 L 663.78125 444.773438 C 663.773438 453.597656 664.566406 464.894531 663.566406 473.457031 C 663.375 475.082031 662.90625 478.390625 661.519531 479.519531 C 658.257812 482.171875 643.304688 481.214844 638.835938 481.195312 C 645.269531 488.324219 654.109375 495.695312 661.089844 502.851562 C 676.078125 518.214844 688.660156 535.09375 700.25 553.109375 C 704.023438 558.972656 708.15625 565.015625 710.910156 571.4375 C 711.871094 573.675781 712.738281 576.117188 712.667969 578.582031 C 712.4375 587.105469 703.0625 600.851562 699.648438 609.238281 C 732.578125 611.363281 757.269531 617.292969 783.152344 639.472656 C 793.105469 648 801.214844 657.992188 806.78125 669.882812 C 808.046875 672.59375 809.515625 675.492188 809.660156 678.53125 C 809.734375 680.140625 809.359375 681.664062 808.195312 682.839844 C 803.8125 687.261719 786.679688 684.296875 780.359375 684.296875 C 782.964844 687.144531 785.460938 690.085938 787.84375 693.121094 C 803.898438 713.910156 809.34375 743.28125 806.035156 768.992188 C 805.925781 769.808594 805.800781 770.628906 805.671875 771.445312 C 805.539062 772.257812 805.398438 773.074219 805.246094 773.886719 C 805.09375 774.699219 804.933594 775.507812 804.761719 776.316406 C 804.589844 777.125 804.410156 777.929688 804.21875 778.734375 C 804.027344 779.539062 803.824219 780.339844 803.613281 781.140625 C 803.402344 781.9375 803.183594 782.734375 802.953125 783.527344 C 802.71875 784.320312 802.480469 785.109375 802.230469 785.898438 C 801.980469 786.6875 801.71875 787.46875 801.449219 788.25 C 801.179688 789.03125 800.902344 789.808594 800.613281 790.585938 C 800.324219 791.359375 800.027344 792.128906 799.71875 792.898438 C 799.410156 793.664062 799.09375 794.425781 798.769531 795.183594 C 798.441406 795.945312 798.105469 796.699219 797.761719 797.449219 C 797.417969 798.203125 797.0625 798.949219 796.699219 799.691406 C 796.335938 800.433594 795.964844 801.167969 795.582031 801.902344 C 795.199219 802.636719 794.808594 803.363281 794.410156 804.085938 C 794.011719 804.808594 793.601562 805.527344 793.1875 806.242188 C 792.769531 806.953125 792.34375 807.664062 791.910156 808.367188 C 791.472656 809.066406 791.03125 809.765625 790.578125 810.457031 C 790.128906 811.148438 789.667969 811.835938 789.199219 812.515625 C 788.730469 813.195312 788.253906 813.871094 787.769531 814.539062 C 787.28125 815.207031 786.789062 815.871094 786.289062 816.527344 C 785.785156 817.183594 785.277344 817.835938 784.757812 818.480469 C 784.242188 819.121094 783.714844 819.761719 783.183594 820.390625 C 782.648438 821.023438 782.109375 821.648438 781.558594 822.265625 C 781.011719 822.882812 780.457031 823.492188 779.890625 824.097656 C 779.328125 824.703125 778.757812 825.300781 778.179688 825.890625 C 777.601562 826.480469 777.015625 827.0625 776.421875 827.636719 C 775.828125 828.214844 775.230469 828.78125 774.625 829.34375 C 774.015625 829.902344 773.402344 830.457031 772.78125 831 C 772.164062 831.546875 771.535156 832.085938 770.902344 832.617188 C 770.269531 833.144531 769.628906 833.667969 768.984375 834.183594 C 768.335938 834.699219 767.683594 835.203125 767.023438 835.703125 C 766.359375 836.199219 765.691406 836.691406 765.015625 837.171875 C 764.339844 837.652344 763.65625 838.128906 762.96875 838.59375 C 762.28125 839.058594 761.589844 839.511719 760.890625 839.960938 C 760.191406 840.410156 759.488281 840.851562 758.78125 841.28125 C 758.070312 841.710938 757.355469 842.132812 756.636719 842.546875 C 755.917969 842.960938 755.191406 843.367188 754.460938 843.761719 C 753.734375 844.160156 753 844.546875 752.261719 844.925781 C 751.523438 845.300781 750.777344 845.671875 750.03125 846.03125 C 749.28125 846.390625 748.53125 846.742188 747.773438 847.085938 C 747.019531 847.425781 746.257812 847.757812 745.492188 848.082031 C 744.730469 848.40625 743.960938 848.71875 743.1875 849.023438 C 742.417969 849.328125 741.640625 849.621094 740.863281 849.910156 C 740.082031 850.195312 739.300781 850.46875 738.515625 850.734375 C 737.726562 851.003906 736.9375 851.261719 736.148438 851.507812 C 735.355469 851.753906 734.558594 851.992188 733.761719 852.21875 C 732.964844 852.449219 732.164062 852.667969 731.359375 852.875 C 730.554688 853.082031 729.75 853.28125 728.941406 853.472656 C 728.132812 853.660156 727.324219 853.839844 726.511719 854.007812 C 725.699219 854.175781 724.882812 854.335938 724.066406 854.484375 C 723.25 854.632812 722.433594 854.773438 721.613281 854.902344 C 720.792969 855.03125 719.972656 855.152344 719.148438 855.261719 C 718.328125 855.371094 717.503906 855.46875 716.679688 855.558594 C 715.851562 855.648438 715.027344 855.726562 714.199219 855.796875 C 713.375 855.867188 712.546875 855.925781 711.71875 855.972656 C 710.886719 856.023438 710.058594 856.0625 709.230469 856.089844 C 708.402344 856.121094 707.570312 856.136719 706.742188 856.144531 C 705.910156 856.15625 705.082031 856.152344 704.25 856.140625 C 703.421875 856.128906 702.59375 856.109375 701.761719 856.078125 C 700.933594 856.046875 700.105469 856.003906 699.277344 855.949219 C 698.449219 855.898438 697.621094 855.835938 696.792969 855.765625 C 695.96875 855.691406 695.140625 855.609375 694.316406 855.519531 C 693.492188 855.425781 692.667969 855.324219 691.847656 855.210938 C 691.003906 855.09375 690.160156 854.964844 689.316406 854.828125 C 688.476562 854.691406 687.636719 854.542969 686.800781 854.382812 C 685.960938 854.226562 685.125 854.058594 684.292969 853.878906 C 683.460938 853.699219 682.628906 853.507812 681.800781 853.308594 C 680.972656 853.109375 680.144531 852.898438 679.320312 852.679688 C 678.496094 852.457031 677.675781 852.226562 676.859375 851.984375 C 676.042969 851.746094 675.226562 851.496094 674.414062 851.234375 C 673.601562 850.972656 672.796875 850.699219 671.988281 850.421875 C 671.1875 850.140625 670.382812 849.847656 669.585938 849.546875 C 668.789062 849.246094 667.996094 848.933594 667.207031 848.613281 C 666.414062 848.292969 665.628906 847.964844 664.847656 847.621094 C 664.066406 847.28125 663.289062 846.933594 662.515625 846.574219 C 661.742188 846.214844 660.972656 845.84375 660.210938 845.464844 C 659.445312 845.089844 658.6875 844.699219 657.933594 844.300781 C 657.179688 843.90625 656.429688 843.5 655.683594 843.082031 C 654.941406 842.667969 654.203125 842.242188 653.46875 841.808594 C 652.734375 841.371094 652.007812 840.929688 651.285156 840.476562 C 650.5625 840.023438 649.84375 839.5625 649.132812 839.09375 C 648.421875 838.625 647.714844 838.144531 647.015625 837.65625 C 646.316406 837.167969 645.625 836.671875 644.9375 836.167969 C 644.25 835.664062 643.570312 835.148438 642.894531 834.628906 C 642.222656 834.105469 641.554688 833.578125 640.890625 833.039062 C 640.230469 832.5 639.578125 831.953125 638.929688 831.398438 C 638.28125 830.84375 637.640625 830.28125 637.007812 829.710938 C 636.375 829.140625 635.746094 828.5625 635.128906 827.976562 C 634.507812 827.390625 633.894531 826.796875 633.292969 826.195312 C 632.6875 825.59375 632.089844 824.984375 631.5 824.371094 C 630.910156 823.753906 630.328125 823.128906 629.753906 822.5 C 629.179688 821.871094 628.613281 821.230469 628.058594 820.585938 C 627.5 819.941406 626.949219 819.292969 626.40625 818.632812 C 625.863281 817.976562 625.332031 817.308594 624.804688 816.640625 C 624.28125 815.96875 623.761719 815.289062 623.253906 814.605469 C 605.4375 790.554688 600.09375 764.1875 604.347656 734.90625 C 597.957031 737.332031 593.007812 739.789062 585.96875 739.957031 C 579.855469 748.472656 573.21875 758.214844 565.058594 764.84375 C 540.171875 764.894531 515.285156 764.761719 490.398438 764.4375 L 428.851562 764.457031 C 418.632812 764.492188 408.019531 765.523438 397.859375 764.320312 C 396.519531 764.160156 394.75 764.054688 393.601562 763.324219 C 388.957031 760.359375 371.039062 736.203125 366.058594 729.925781 C 369.078125 748.652344 368.878906 766.316406 363.144531 784.582031 C 355.289062 809.601562 337.710938 832.210938 314.230469 844.324219 C 313.472656 844.714844 312.710938 845.101562 311.945312 845.472656 C 311.179688 845.847656 310.40625 846.214844 309.632812 846.566406 C 308.855469 846.921875 308.074219 847.269531 307.292969 847.605469 C 306.507812 847.941406 305.71875 848.265625 304.925781 848.582031 C 304.132812 848.898438 303.335938 849.203125 302.539062 849.5 C 301.738281 849.792969 300.933594 850.082031 300.125 850.355469 C 299.320312 850.632812 298.507812 850.898438 297.695312 851.152344 C 296.878906 851.410156 296.0625 851.652344 295.242188 851.886719 C 294.421875 852.125 293.601562 852.347656 292.773438 852.5625 C 291.949219 852.777344 291.121094 852.980469 290.289062 853.175781 C 289.460938 853.367188 288.625 853.550781 287.792969 853.722656 C 286.957031 853.898438 286.117188 854.058594 285.277344 854.210938 C 284.4375 854.363281 283.597656 854.503906 282.753906 854.636719 C 281.914062 854.765625 281.066406 854.886719 280.222656 854.996094 C 279.375 855.105469 278.527344 855.203125 277.679688 855.292969 C 276.832031 855.382812 275.980469 855.460938 275.132812 855.527344 C 274.28125 855.59375 273.429688 855.648438 272.578125 855.695312 C 271.726562 855.742188 270.875 855.777344 270.019531 855.800781 C 269.167969 855.828125 268.316406 855.839844 267.460938 855.84375 C 266.609375 855.847656 265.757812 855.839844 264.902344 855.820312 C 264.050781 855.804688 263.199219 855.773438 262.347656 855.734375 C 261.496094 855.695312 260.644531 855.644531 259.792969 855.585938 C 258.941406 855.523438 258.089844 855.453125 257.242188 855.371094 C 256.390625 855.289062 255.542969 855.195312 254.699219 855.09375 C 253.851562 854.988281 253.003906 854.875 252.160156 854.75 C 251.316406 854.625 250.476562 854.492188 249.632812 854.347656 C 248.792969 854.199219 247.957031 854.042969 247.117188 853.878906 C 246.28125 853.710938 245.449219 853.535156 244.613281 853.347656 C 243.78125 853.160156 242.953125 852.960938 242.125 852.753906 C 241.296875 852.546875 240.472656 852.328125 239.652344 852.097656 C 238.832031 851.871094 238.011719 851.628906 237.195312 851.382812 C 236.378906 851.132812 235.566406 850.871094 234.757812 850.601562 C 233.964844 850.339844 233.171875 850.0625 232.382812 849.78125 C 231.59375 849.496094 230.8125 849.203125 230.03125 848.898438 C 229.25 848.597656 228.472656 848.285156 227.699219 847.964844 C 226.925781 847.640625 226.15625 847.308594 225.390625 846.96875 C 224.625 846.628906 223.863281 846.28125 223.105469 845.921875 C 222.347656 845.5625 221.597656 845.195312 220.847656 844.816406 C 220.101562 844.441406 219.355469 844.054688 218.617188 843.660156 C 217.878906 843.265625 217.144531 842.863281 216.414062 842.449219 C 215.6875 842.035156 214.960938 841.617188 214.242188 841.183594 C 213.523438 840.753906 212.8125 840.316406 212.101562 839.871094 C 211.394531 839.421875 210.691406 838.964844 209.996094 838.5 C 209.296875 838.039062 208.605469 837.566406 207.917969 837.082031 C 207.234375 836.601562 206.554688 836.113281 205.878906 835.617188 C 205.203125 835.117188 204.535156 834.613281 203.875 834.097656 C 203.214844 833.585938 202.558594 833.0625 201.910156 832.535156 C 201.257812 832.003906 200.617188 831.46875 199.980469 830.921875 C 199.34375 830.378906 198.714844 829.824219 198.089844 829.265625 C 197.46875 828.707031 196.851562 828.136719 196.242188 827.5625 C 195.632812 826.988281 195.03125 826.40625 194.4375 825.816406 C 193.839844 825.226562 193.253906 824.628906 192.671875 824.023438 C 192.09375 823.421875 191.519531 822.808594 190.953125 822.191406 C 190.386719 821.574219 189.828125 820.949219 189.277344 820.320312 C 188.726562 819.6875 188.183594 819.050781 187.648438 818.40625 C 187.113281 817.761719 186.585938 817.109375 186.066406 816.453125 C 185.546875 815.796875 185.035156 815.132812 184.53125 814.464844 C 184.027344 813.792969 183.53125 813.117188 183.042969 812.4375 C 182.554688 811.753906 182.078125 811.066406 181.605469 810.375 C 181.132812 809.683594 180.671875 808.984375 180.21875 808.277344 C 179.765625 807.574219 179.320312 806.863281 178.882812 806.148438 C 178.445312 805.433594 178.019531 804.714844 177.597656 803.988281 C 177.179688 803.265625 176.769531 802.535156 176.367188 801.796875 C 175.964844 801.0625 175.570312 800.324219 175.1875 799.578125 C 162.605469 774.777344 161.621094 747.214844 170.167969 720.988281 C 159.511719 720.65625 147.730469 722.253906 137.703125 717.773438 C 131.917969 715.1875 127.757812 710.5625 125.578125 704.65625 C 118.34375 685.058594 134.4375 653.277344 142.761719 635.429688 C 137.210938 635.320312 127.804688 637.226562 123.339844 632.941406 C 122.214844 631.859375 121.214844 629.972656 121.285156 628.371094 C 121.34375 627.152344 121.730469 626.207031 122.636719 625.386719 C 127.082031 621.355469 144.632812 622.703125 150.753906 622.808594 C 159.984375 608.921875 172.179688 597.492188 184.460938 586.402344 C 162.796875 585.703125 140.910156 585.792969 119.230469 585.796875 C 113.628906 585.800781 98.582031 586.738281 94.210938 585.796875 C 92.402344 585.410156 90.917969 583.792969 90.074219 582.222656 C 89.261719 580.710938 88.847656 578.777344 89.53125 577.136719 C 91.636719 572.09375 103.59375 573.800781 108.132812 573.839844 L 164.109375 573.796875 C 173.222656 573.832031 194.199219 575.257812 202.113281 573.128906 C 209.074219 571.253906 215.261719 566.371094 221.816406 563.378906 C 230.921875 559.21875 240.65625 556.152344 250.21875 553.246094 C 250.15625 551.917969 250.117188 550.589844 250.105469 549.261719 C 249.996094 538.222656 251.882812 527.136719 259.988281 519.007812 C 264.488281 514.496094 270.34375 511.765625 276.507812 510.382812 C 286.019531 508.253906 295.855469 509.339844 305.511719 509.378906 L 344.894531 509.414062 C 335.449219 492.46875 335.671875 476.355469 336.945312 457.613281 C 340.605469 403.6875 365.335938 337.53125 407.035156 301.472656 C 418.566406 291.5 433.3125 283.792969 448.941406 284.972656 C 466.902344 286.328125 477.351562 294.464844 488.640625 307.589844 C 491.613281 304.546875 493.109375 301.167969 494.394531 297.207031 C 489.1875 294.890625 482.207031 292.375 478.464844 287.917969 C 475.472656 284.355469 473 280.542969 469.582031 277.332031 C 465.890625 273.863281 461.328125 271.3125 457.300781 268.246094 C 446.007812 259.644531 438.902344 246.25 437.070312 232.257812 C 436.992188 231.707031 436.925781 231.15625 436.863281 230.605469 C 436.800781 230.054688 436.746094 229.503906 436.699219 228.953125 C 436.652344 228.398438 436.613281 227.847656 436.578125 227.292969 C 436.542969 226.738281 436.515625 226.1875 436.496094 225.632812 C 436.476562 225.078125 436.460938 224.523438 436.457031 223.96875 C 436.449219 223.414062 436.449219 222.859375 436.457031 222.308594 C 436.464844 221.753906 436.476562 221.199219 436.496094 220.644531 C 436.519531 220.089844 436.546875 219.535156 436.582031 218.984375 C 436.617188 218.429688 436.65625 217.878906 436.707031 217.324219 C 436.753906 216.773438 436.808594 216.21875 436.871094 215.667969 C 436.933594 215.117188 437 214.570312 437.078125 214.019531 C 437.152344 213.46875 437.234375 212.921875 437.324219 212.375 C 437.414062 211.828125 437.507812 211.28125 437.613281 210.734375 C 437.714844 210.191406 437.824219 209.648438 437.941406 209.105469 C 438.054688 208.5625 438.179688 208.023438 438.308594 207.484375 C 438.4375 206.945312 438.574219 206.40625 438.71875 205.871094 C 438.859375 205.335938 439.007812 204.804688 439.164062 204.269531 C 439.320312 203.738281 439.484375 203.207031 439.652344 202.679688 C 439.824219 202.152344 440 201.625 440.179688 201.101562 C 440.363281 200.578125 440.550781 200.058594 440.746094 199.539062 C 440.941406 199.019531 441.144531 198.503906 441.351562 197.992188 C 441.558594 197.476562 441.773438 196.964844 441.992188 196.457031 C 442.214844 195.949219 442.441406 195.441406 442.675781 194.9375 C 442.90625 194.4375 443.148438 193.9375 443.390625 193.4375 C 443.636719 192.941406 443.890625 192.449219 444.148438 191.957031 C 444.40625 191.464844 444.667969 190.980469 444.9375 190.496094 C 445.207031 190.011719 445.484375 189.527344 445.765625 189.050781 C 446.046875 188.574219 446.335938 188.101562 446.628906 187.628906 C 446.921875 187.160156 447.222656 186.691406 447.527344 186.230469 C 447.832031 185.765625 448.144531 185.308594 448.460938 184.851562 C 448.773438 184.398438 449.097656 183.945312 449.425781 183.5 C 449.753906 183.050781 450.085938 182.609375 450.425781 182.171875 C 462.179688 166.925781 478.742188 159.246094 497.464844 156.824219 Z M 273.429688 561.769531 C 261.773438 563.71875 250.511719 566.214844 239.363281 570.1875 C 209.421875 580.855469 181.496094 601.609375 163.027344 627.480469 C 161.597656 629.464844 160.214844 631.480469 158.878906 633.53125 C 157.542969 635.578125 156.253906 637.660156 155.015625 639.769531 C 153.777344 641.878906 152.589844 644.015625 151.453125 646.183594 C 150.3125 648.347656 149.226562 650.539062 148.191406 652.753906 C 147.15625 654.972656 146.171875 657.210938 145.242188 659.472656 C 144.3125 661.734375 143.433594 664.019531 142.613281 666.324219 C 141.789062 668.625 141.019531 670.949219 140.304688 673.285156 C 139.589844 675.625 138.929688 677.980469 138.324219 680.351562 C 137.074219 685.429688 135.710938 690.914062 136.585938 696.167969 C 137.3125 700.558594 139.453125 704.074219 143.179688 706.53125 C 145.214844 707.871094 148.394531 708.023438 150.804688 708.148438 C 166.371094 708.953125 184.246094 708.25 200.050781 708.25 L 307.550781 707.980469 L 414.078125 707.917969 C 409.335938 702.390625 404.34375 696.941406 400.335938 690.847656 C 389.621094 674.5625 386.140625 653.59375 387.648438 634.417969 C 389.476562 611.152344 401.675781 588.699219 417.933594 572.226562 C 417.121094 568.777344 416.300781 565.347656 415.839844 561.828125 L 323.308594 561.71875 L 292.035156 561.691406 C 285.839844 561.667969 279.609375 561.351562 273.429688 561.769531 Z M 756.148438 683.652344 C 715.347656 686.125 683.382812 698.113281 646.464844 714.738281 C 636.859375 719.0625 626.925781 723.214844 617.664062 728.222656 C 616.554688 735.257812 614.910156 742.214844 614.621094 749.355469 C 613.84375 768.65625 620.949219 790.644531 632.246094 806.160156 C 639.980469 816.777344 651.382812 827.425781 663.316406 833.042969 C 686.105469 843.71875 712.207031 846.894531 736.15625 838.21875 C 736.839844 837.972656 737.519531 837.714844 738.195312 837.453125 C 738.875 837.1875 739.546875 836.917969 740.21875 836.636719 C 740.890625 836.355469 741.554688 836.066406 742.21875 835.769531 C 742.882812 835.472656 743.542969 835.167969 744.199219 834.855469 C 744.855469 834.539062 745.507812 834.21875 746.152344 833.890625 C 746.800781 833.5625 747.445312 833.222656 748.085938 832.878906 C 748.726562 832.53125 749.363281 832.179688 749.992188 831.820312 C 750.625 831.457031 751.25 831.089844 751.871094 830.710938 C 752.492188 830.335938 753.109375 829.953125 753.722656 829.558594 C 754.335938 829.167969 754.945312 828.769531 755.546875 828.363281 C 756.148438 827.957031 756.746094 827.542969 757.339844 827.121094 C 757.929688 826.699219 758.515625 826.269531 759.097656 825.835938 C 759.679688 825.398438 760.257812 824.957031 760.828125 824.507812 C 761.398438 824.058594 761.964844 823.597656 762.523438 823.136719 C 763.085938 822.671875 763.636719 822.199219 764.1875 821.722656 C 764.734375 821.246094 765.277344 820.761719 765.8125 820.269531 C 766.347656 819.777344 766.878906 819.28125 767.402344 818.777344 C 767.925781 818.273438 768.441406 817.761719 768.953125 817.246094 C 769.464844 816.726562 769.96875 816.207031 770.46875 815.675781 C 770.964844 815.144531 771.457031 814.609375 771.945312 814.070312 C 772.429688 813.527344 772.90625 812.980469 773.378906 812.425781 C 773.851562 811.875 774.316406 811.316406 774.773438 810.75 C 775.230469 810.183594 775.679688 809.613281 776.125 809.039062 C 776.570312 808.460938 777.003906 807.882812 777.433594 807.296875 C 777.863281 806.707031 778.285156 806.117188 778.699219 805.519531 C 779.117188 804.921875 779.523438 804.320312 779.921875 803.710938 C 780.324219 803.105469 780.714844 802.492188 781.101562 801.878906 C 781.484375 801.261719 781.863281 800.640625 782.230469 800.011719 C 782.601562 799.386719 782.960938 798.757812 783.316406 798.121094 C 783.671875 797.484375 784.015625 796.847656 784.355469 796.203125 C 784.695312 795.558594 785.023438 794.914062 785.34375 794.261719 C 785.667969 793.609375 785.980469 792.953125 786.289062 792.292969 C 796.511719 770.324219 797.976562 745.988281 789.492188 723.175781 C 788.929688 721.621094 788.320312 720.085938 787.664062 718.566406 C 787.011719 717.046875 786.316406 715.546875 785.574219 714.070312 C 784.835938 712.589844 784.054688 711.132812 783.230469 709.699219 C 782.40625 708.265625 781.542969 706.859375 780.636719 705.472656 C 779.734375 704.089844 778.789062 702.730469 777.808594 701.402344 C 776.824219 700.070312 775.804688 698.773438 774.75 697.5 C 773.691406 696.230469 772.597656 694.988281 771.46875 693.78125 C 770.34375 692.574219 769.179688 691.398438 767.984375 690.253906 C 765.609375 688 762.808594 685.371094 759.765625 684.070312 C 758.578125 683.566406 757.410156 683.589844 756.148438 683.652344 Z M 471.925781 416.496094 C 469.265625 422.308594 451.917969 459.402344 451.6875 462.082031 C 456.316406 472.882812 468.34375 481.085938 477.273438 488.234375 C 485.125 494.480469 493.058594 500.625 501.066406 506.671875 C 509.609375 513.1875 519.53125 519.308594 525.785156 528.226562 C 531.960938 537.027344 533.394531 546.550781 532.511719 557.125 C 531.394531 570.542969 523.578125 588.597656 519.472656 601.753906 L 504.941406 647.597656 C 502.742188 654.636719 500.984375 661.882812 498.597656 668.847656 C 507.089844 670.347656 514.320312 672.3125 519.601562 679.765625 C 523.652344 685.484375 524.632812 692.632812 523.449219 699.4375 C 522.929688 702.414062 521.921875 705.15625 520.53125 707.839844 C 527.410156 707.933594 538.1875 709.390625 544.296875 706.230469 C 549.03125 701.222656 553.316406 695.699219 557.496094 690.222656 C 590.792969 646.625 602.945312 594.285156 601.449219 540.0625 C 600.792969 516.1875 596.761719 493.359375 590.558594 470.363281 L 581.519531 467.855469 C 576.6875 469.410156 571.886719 471.082031 566.730469 470.121094 C 557.9375 468.484375 532.671875 455.628906 523.113281 451.214844 C 511.71875 445.953125 499.96875 441.167969 488.800781 435.464844 C 477.777344 429.832031 476.507812 419.460938 471.925781 416.496094 Z M 443.691406 297.511719 C 416.746094 303.890625 398.355469 325.804688 384.410156 348.433594 C 368.976562 373.480469 359.976562 400.8125 353.753906 429.402344 C 351.808594 438.332031 349.757812 447.433594 349.242188 456.585938 L 405.773438 456.617188 C 417.171875 456.613281 428.71875 457.027344 440.097656 456.378906 C 446.46875 444.277344 451.597656 431.238281 457.1875 418.742188 C 459.488281 413.597656 461.683594 408.257812 464.488281 403.363281 C 459.597656 393.027344 453.402344 382.722656 447.480469 372.9375 C 444.238281 367.582031 440.25 361.996094 437.875 356.199219 C 437.125 354.371094 436.351562 352.121094 436.851562 350.125 C 437.179688 348.808594 438.082031 347.976562 439.285156 347.460938 C 440.941406 346.753906 443.21875 346.296875 444.949219 346.988281 C 448.800781 348.519531 450.671875 354.113281 452.480469 357.554688 C 461.109375 373.003906 470.558594 387.972656 479.5 403.238281 C 483.101562 409.390625 487.269531 415.636719 490.234375 422.117188 L 544.148438 446.757812 C 553.078125 450.824219 561.328125 455.722656 570.835938 458.460938 C 576.332031 455.039062 580.628906 451.53125 582.128906 444.832031 C 583.5 438.71875 581.65625 430.488281 578.046875 425.359375 C 575.421875 421.628906 569.246094 419.160156 565.308594 416.929688 C 556.917969 412.183594 528.273438 397.117188 522.179688 391.117188 C 517.453125 386.464844 513.902344 379.320312 510.324219 373.6875 C 501.6875 360.085938 492.621094 346.402344 485.21875 332.082031 C 481.832031 325.53125 479.511719 317.257812 474.996094 311.476562 C 471.671875 307.226562 466.773438 304.050781 462.152344 301.386719 C 458.625 299.355469 454.101562 298.105469 450.082031 297.574219 C 448.058594 297.308594 445.710938 297.234375 443.691406 297.511719 Z M 606.601562 480.914062 C 609.8125 498.0625 612.554688 515.167969 613.503906 532.617188 C 616.328125 584.453125 605.621094 643.4375 575.921875 686.941406 C 568.132812 698.351562 559.171875 710.792969 548.964844 720.160156 C 517.109375 721.273438 485.054688 720.148438 453.175781 720.132812 C 436.605469 720.125 420.015625 719.949219 403.445312 720.164062 C 393.925781 720.289062 384.316406 720.953125 374.804688 720.738281 C 382.710938 731.277344 390.953125 741.957031 399.75 751.765625 C 420.128906 753.085938 440.894531 752.132812 461.328125 752.152344 L 531.121094 752.578125 C 540.625 752.585938 550.195312 752.816406 559.691406 752.484375 C 566.359375 743.921875 573.070312 734.917969 581.320312 727.816406 C 581.371094 727.667969 581.421875 727.523438 581.46875 727.375 C 583.027344 722.515625 583.265625 717.050781 584.023438 712.003906 C 584.746094 707.21875 585.867188 702.472656 587.148438 697.804688 C 596.109375 665.152344 620.722656 638.621094 650.285156 623.101562 C 661.074219 617.4375 671.890625 614.183594 683.601562 611.21875 C 689.101562 600.480469 695.105469 589.816406 700.101562 578.847656 C 689.929688 556.335938 667.746094 527.414062 650.304688 509.652344 C 642.53125 501.742188 633.464844 494.949219 626.332031 486.425781 L 626.285156 480.894531 C 619.886719 480.710938 612.898438 481.570312 606.601562 480.914062 Z M 348.449219 469.097656 C 347.632812 481.386719 349.027344 495.042969 357.476562 504.636719 C 369.207031 517.957031 387.632812 523.230469 403.488281 529.964844 C 415.84375 535.210938 427.917969 541.070312 440.242188 546.375 C 449.691406 550.445312 460.035156 553.957031 469.050781 558.84375 C 470.835938 559.8125 476.582031 563.039062 476.46875 565.195312 C 475.996094 574.136719 467.5 595.941406 464.484375 605.527344 C 457.886719 626.484375 451.84375 647.675781 444.894531 668.515625 C 449.445312 668.542969 484.683594 669.078125 485.347656 668.363281 C 485.90625 667.769531 486.109375 666.890625 486.363281 666.132812 C 493.4375 643.007812 500.664062 619.929688 508.042969 596.902344 L 515.136719 575.367188 C 517.296875 568.964844 520.035156 562.308594 520.808594 555.558594 C 521.488281 549.597656 520.042969 543.507812 517.242188 538.246094 C 512.546875 529.417969 502.617188 523.097656 494.757812 517.277344 C 484.0625 509.421875 473.4375 501.464844 462.890625 493.410156 C 457.105469 489.027344 450.875 484.878906 445.609375 479.871094 C 443.910156 478.265625 442.316406 476.566406 440.828125 474.761719 C 439.339844 472.960938 437.972656 471.074219 436.71875 469.101562 C 429.964844 469.324219 423.066406 468.921875 416.292969 468.914062 C 393.71875 468.898438 371.011719 468.464844 348.449219 469.097656 Z M 183.753906 720.234375 C 182.222656 726.046875 179.871094 731.550781 178.597656 737.449219 C 174.039062 758.597656 178.257812 780.636719 189.167969 799.230469 C 201.195312 819.734375 222.101562 834.769531 245.074219 840.558594 C 245.785156 840.742188 246.496094 840.917969 247.210938 841.082031 C 247.925781 841.246094 248.640625 841.402344 249.359375 841.550781 C 250.078125 841.695312 250.796875 841.835938 251.519531 841.964844 C 252.242188 842.09375 252.964844 842.214844 253.6875 842.328125 C 254.414062 842.4375 255.140625 842.539062 255.867188 842.632812 C 256.59375 842.726562 257.320312 842.8125 258.050781 842.886719 C 258.78125 842.960938 259.511719 843.027344 260.242188 843.085938 C 260.972656 843.144531 261.703125 843.191406 262.4375 843.230469 C 263.167969 843.269531 263.902344 843.300781 264.632812 843.320312 C 265.367188 843.34375 266.101562 843.355469 266.832031 843.359375 C 267.566406 843.359375 268.300781 843.355469 269.03125 843.339844 C 269.765625 843.324219 270.5 843.300781 271.230469 843.265625 C 271.960938 843.234375 272.695312 843.191406 273.425781 843.140625 C 274.15625 843.089844 274.886719 843.027344 275.617188 842.957031 C 276.347656 842.890625 277.078125 842.808594 277.804688 842.722656 C 278.535156 842.636719 279.261719 842.539062 279.984375 842.433594 C 280.710938 842.328125 281.433594 842.210938 282.15625 842.089844 C 282.878906 841.964844 283.601562 841.832031 284.320312 841.691406 C 285.039062 841.550781 285.757812 841.398438 286.472656 841.238281 C 287.1875 841.082031 287.902344 840.914062 288.613281 840.734375 C 289.324219 840.558594 290.035156 840.375 290.742188 840.179688 C 291.449219 839.984375 292.152344 839.78125 292.855469 839.570312 C 293.558594 839.359375 294.257812 839.136719 294.953125 838.90625 C 295.648438 838.679688 296.34375 838.441406 297.035156 838.195312 C 297.722656 837.949219 298.410156 837.691406 299.097656 837.429688 C 299.78125 837.164062 300.460938 836.894531 301.136719 836.613281 C 301.816406 836.332031 302.488281 836.046875 303.160156 835.746094 C 303.832031 835.449219 304.496094 835.144531 305.160156 834.832031 C 305.824219 834.519531 306.480469 834.199219 307.136719 833.867188 C 307.792969 833.539062 308.441406 833.199219 309.089844 832.851562 C 309.734375 832.507812 310.378906 832.152344 311.015625 831.792969 C 311.652344 831.429688 312.285156 831.0625 312.914062 830.683594 C 333.261719 818.351562 347.46875 797.429688 353.027344 774.457031 C 354.707031 767.523438 357.386719 750.824219 355.125 744.058594 C 354.007812 735.976562 352.089844 728.410156 349.609375 720.65625 C 334.488281 720.648438 318.90625 719.867188 303.839844 721.050781 C 312.753906 731.222656 316.382812 743.867188 315.46875 757.164062 C 315.414062 757.980469 315.335938 758.792969 315.242188 759.605469 C 315.148438 760.421875 315.03125 761.230469 314.898438 762.039062 C 314.761719 762.84375 314.609375 763.648438 314.433594 764.445312 C 314.261719 765.246094 314.066406 766.042969 313.851562 766.832031 C 313.640625 767.621094 313.410156 768.40625 313.15625 769.183594 C 312.90625 769.964844 312.632812 770.734375 312.34375 771.5 C 312.054688 772.265625 311.746094 773.023438 311.421875 773.773438 C 311.09375 774.523438 310.75 775.265625 310.386719 776 C 310.023438 776.734375 309.640625 777.457031 309.242188 778.171875 C 308.84375 778.886719 308.429688 779.589844 307.996094 780.285156 C 307.5625 780.976562 307.113281 781.660156 306.644531 782.332031 C 306.179688 783.003906 305.695312 783.664062 305.195312 784.3125 C 304.699219 784.960938 304.183594 785.597656 303.652344 786.222656 C 303.125 786.84375 302.578125 787.453125 302.019531 788.050781 C 301.457031 788.648438 300.882812 789.230469 300.292969 789.796875 C 299.707031 790.367188 299.105469 790.917969 298.488281 791.457031 C 288.246094 800.382812 275.988281 804.09375 262.523438 803.148438 C 261.730469 803.089844 260.9375 803.015625 260.148438 802.921875 C 259.359375 802.828125 258.570312 802.714844 257.785156 802.578125 C 257.003906 802.445312 256.222656 802.292969 255.445312 802.121094 C 254.667969 801.949219 253.894531 801.757812 253.128906 801.546875 C 252.359375 801.339844 251.597656 801.109375 250.84375 800.863281 C 250.085938 800.613281 249.335938 800.347656 248.59375 800.0625 C 247.851562 799.777344 247.113281 799.476562 246.386719 799.15625 C 245.65625 798.832031 244.9375 798.496094 244.226562 798.140625 C 243.515625 797.78125 242.8125 797.410156 242.121094 797.019531 C 241.425781 796.628906 240.742188 796.21875 240.070312 795.792969 C 239.398438 795.371094 238.734375 794.929688 238.082031 794.472656 C 237.433594 794.015625 236.792969 793.542969 236.164062 793.050781 C 235.535156 792.5625 234.921875 792.058594 234.316406 791.539062 C 233.714844 791.019531 233.125 790.488281 232.546875 789.9375 C 231.972656 789.390625 231.40625 788.828125 230.859375 788.253906 C 230.308594 787.675781 229.773438 787.085938 229.253906 786.484375 C 221.226562 777.066406 217.21875 763.738281 218.21875 751.449219 C 219.1875 739.5 223.832031 729.902344 231.59375 720.925781 C 220.136719 719.929688 208.265625 720.277344 196.757812 720.289062 C 192.523438 720.292969 187.953125 720.660156 183.753906 720.234375 Z M 700.425781 622.128906 C 670.402344 624.652344 642.730469 636.851562 622.953125 660.078125 C 607.785156 677.894531 596.5 700.382812 595.320312 724.023438 C 617.523438 714.660156 639.601562 705.015625 661.554688 695.082031 C 699.945312 679.578125 727.53125 671.320312 769.332031 670.851562 C 777.304688 670.761719 785.207031 671.566406 793.160156 671.625 C 778.164062 646.695312 754.878906 631.671875 726.882812 624.796875 C 718.328125 622.699219 709.238281 621.496094 700.425781 622.128906 Z M 502.097656 169.125 C 486.582031 170.1875 472.34375 176 461.964844 187.835938 C 453.191406 197.839844 447.710938 211.761719 448.578125 225.164062 C 449.40625 237.980469 454.824219 249.664062 464.613281 258.054688 C 469.082031 261.878906 474.273438 264.8125 478.746094 268.621094 C 482.953125 272.203125 486.265625 276.980469 489.722656 281.269531 C 490.273438 275.554688 490.144531 269.769531 490.105469 264.03125 C 489.683594 255.195312 488.050781 237.496094 490.722656 229.621094 C 492.824219 227.3125 496.875 226.875 499.851562 226.738281 C 507.179688 226.402344 514.636719 226.679688 521.972656 226.691406 L 558.023438 226.765625 C 557.816406 210.246094 552.015625 195.285156 540.097656 183.640625 C 530.273438 174.039062 516.367188 168.867188 502.6875 169.109375 Z M 426.46875 554.300781 C 428.628906 561.617188 430.753906 568.730469 431.816406 576.304688 C 426.789062 581.335938 421.753906 586.355469 417.382812 591.980469 C 405.949219 606.703125 399.0625 625.316406 399.003906 644.011719 C 398.945312 663.859375 407.886719 682.363281 421.738281 696.226562 C 423.125 697.609375 424.535156 698.964844 425.972656 700.296875 C 425.6875 698.402344 425.441406 696.496094 425.074219 694.613281 C 424.589844 690.992188 424.097656 687.320312 425.019531 683.71875 C 426.339844 678.566406 429.019531 673.621094 431.019531 668.695312 C 432.074219 666.09375 432.835938 663.367188 433.679688 660.6875 C 443.082031 630.449219 452.703125 600.28125 462.539062 570.179688 C 454.464844 565.652344 445.664062 562.105469 437.09375 558.625 C 433.609375 557.210938 429.808594 556.003906 426.46875 554.300781 Z M 266.015625 719.914062 C 255.722656 720.339844 247.070312 722.070312 239.742188 729.957031 C 233.285156 736.910156 230.128906 746.996094 230.609375 756.382812 C 231.109375 766.15625 234.894531 775.382812 242.292969 781.914062 C 248.859375 787.707031 258.585938 791.832031 267.433594 791.226562 C 267.585938 791.214844 267.734375 791.203125 267.886719 791.191406 C 278.445312 789.960938 288.035156 785.996094 294.726562 777.4375 C 300.90625 769.535156 304.480469 759.40625 303.238281 749.339844 C 303.167969 748.769531 303.082031 748.199219 302.984375 747.632812 C 302.886719 747.066406 302.773438 746.503906 302.648438 745.941406 C 302.523438 745.378906 302.382812 744.820312 302.230469 744.265625 C 302.078125 743.710938 301.910156 743.160156 301.730469 742.617188 C 301.550781 742.070312 301.355469 741.527344 301.148438 740.988281 C 300.945312 740.453125 300.726562 739.921875 300.492188 739.394531 C 300.261719 738.867188 300.015625 738.347656 299.757812 737.832031 C 299.5 737.320312 299.230469 736.8125 298.949219 736.308594 C 298.664062 735.808594 298.371094 735.316406 298.0625 734.828125 C 297.757812 734.339844 297.441406 733.863281 297.109375 733.390625 C 296.78125 732.917969 296.441406 732.457031 296.085938 732 C 295.734375 731.546875 295.371094 731.101562 294.996094 730.664062 C 294.625 730.226562 294.238281 729.796875 293.84375 729.378906 C 293.449219 728.960938 293.042969 728.554688 292.628906 728.15625 C 292.214844 727.757812 291.789062 727.367188 291.355469 726.988281 C 290.921875 726.613281 290.480469 726.246094 290.027344 725.886719 C 283.257812 720.652344 274.425781 718.992188 266.015625 719.914062 Z M 282.246094 522.226562 C 275.546875 523.757812 270.082031 525.878906 266.339844 532.070312 C 262.878906 537.789062 262.3125 544.277344 262.730469 550.816406 C 279.300781 548.207031 302.628906 549.449219 319.921875 549.453125 L 363.710938 549.414062 C 372.929688 549.316406 382.171875 548.886719 391.390625 548.925781 C 398.914062 548.863281 406.511719 548.503906 414.027344 548.664062 C 408.015625 546.179688 402.117188 543.421875 396.125 540.886719 C 383.441406 535.515625 371.097656 530.542969 359.730469 522.605469 C 333.964844 521.75 308.015625 521.851562 282.246094 522.226562 Z M 502 239.5 C 501.191406 253.859375 501.441406 268.566406 501.644531 282.9375 C 509.179688 288.40625 514.398438 293.785156 524.773438 291.984375 C 530.1875 291.046875 535.390625 287.828125 538.992188 283.679688 C 548.085938 271.621094 550.007812 255.46875 547.953125 240.753906 C 547.890625 240.324219 547.820312 239.898438 547.746094 239.472656 C 532.582031 239.300781 517.148438 238.636719 502 239.5 Z M 486.550781 680.714844 C 471.644531 681.433594 456.328125 681.152344 441.390625 681 C 438.742188 685.199219 435.707031 690.113281 436.929688 695.304688 C 437.679688 698.496094 440.09375 700.863281 442.851562 702.457031 C 449.0625 706.050781 455.964844 705.90625 462.902344 705.835938 C 469.835938 705.738281 476.773438 705.730469 483.710938 705.808594 C 489.570312 705.871094 496.496094 706.636719 502.207031 705.296875 C 504.585938 704.734375 506.867188 703.589844 508.578125 701.828125 C 510.597656 699.75 511.617188 696.96875 511.535156 694.085938 C 511.4375 690.476562 509.605469 687.164062 506.941406 684.800781 C 501.421875 679.90625 493.4375 680.390625 486.550781 680.714844 Z M 594.308594 431.171875 C 595.730469 440.566406 595.628906 448.902344 590.511719 457.226562 C 595.742188 459.671875 600.25 459.910156 605.71875 458.09375 C 608.839844 455.453125 611.71875 452.375 612 448.066406 C 612.242188 444.339844 610.433594 440.800781 607.953125 438.132812 C 604.210938 434.109375 599.5 432.414062 594.308594 431.171875 Z M 594.308594 431.171875 " fill-opacity="1" fill-rule="nonzero"/></g><path fill="#000000" d="M 702.238281 705.539062 C 702.34375 705.523438 702.441406 705.5 702.546875 705.488281 C 714.105469 704.21875 726.242188 707.679688 735.542969 714.632812 C 745.394531 722.003906 752.355469 733.839844 754.046875 746.023438 C 755.914062 759.488281 752.992188 772.910156 744.726562 783.777344 C 735.929688 795.339844 724.425781 801.222656 710.210938 803.097656 C 698.378906 803.886719 686.246094 800.738281 676.71875 793.574219 C 666.164062 785.640625 659.492188 774.4375 657.742188 761.332031 C 657.636719 760.523438 657.550781 759.707031 657.488281 758.894531 C 657.421875 758.078125 657.378906 757.261719 657.355469 756.441406 C 657.328125 755.625 657.324219 754.804688 657.34375 753.988281 C 657.359375 753.167969 657.394531 752.351562 657.453125 751.535156 C 657.507812 750.71875 657.585938 749.902344 657.683594 749.089844 C 657.78125 748.277344 657.898438 747.46875 658.035156 746.664062 C 658.171875 745.855469 658.328125 745.050781 658.507812 744.253906 C 658.683594 743.453125 658.878906 742.660156 659.097656 741.871094 C 659.3125 741.082031 659.550781 740.296875 659.804688 739.519531 C 660.058594 738.742188 660.335938 737.972656 660.628906 737.207031 C 660.921875 736.445312 661.234375 735.6875 661.566406 734.941406 C 661.894531 734.191406 662.246094 733.453125 662.613281 732.71875 C 662.980469 731.988281 663.367188 731.265625 663.769531 730.554688 C 664.171875 729.84375 664.59375 729.140625 665.03125 728.449219 C 665.46875 727.757812 665.925781 727.078125 666.398438 726.410156 C 666.867188 725.742188 667.355469 725.085938 667.859375 724.441406 C 676.425781 713.367188 688.46875 707.285156 702.238281 705.539062 Z M 701.460938 718.296875 C 691.257812 720.011719 681.9375 725.515625 675.886719 733.984375 C 670.53125 741.472656 668.078125 751.332031 669.714844 760.425781 C 671.402344 769.785156 677.21875 779.097656 685.113281 784.457031 C 692.003906 789.132812 700.296875 791.152344 708.554688 790.753906 C 718.316406 789.847656 726.84375 786.3125 733.246094 778.695312 C 733.644531 778.21875 734.03125 777.730469 734.40625 777.234375 C 734.777344 776.738281 735.140625 776.234375 735.488281 775.71875 C 735.839844 775.203125 736.175781 774.683594 736.5 774.152344 C 736.820312 773.621094 737.132812 773.085938 737.429688 772.539062 C 737.726562 771.992188 738.011719 771.441406 738.28125 770.882812 C 738.554688 770.320312 738.808594 769.753906 739.050781 769.183594 C 739.296875 768.613281 739.523438 768.035156 739.738281 767.453125 C 739.953125 766.867188 740.152344 766.28125 740.339844 765.6875 C 740.527344 765.09375 740.699219 764.496094 740.855469 763.898438 C 741.011719 763.296875 741.152344 762.691406 741.28125 762.082031 C 741.40625 761.472656 741.519531 760.863281 741.617188 760.25 C 741.714844 759.636719 741.796875 759.019531 741.867188 758.402344 C 741.933594 757.785156 741.984375 757.164062 742.023438 756.546875 C 742.058594 755.925781 742.082031 755.304688 742.089844 754.683594 C 742.09375 754.0625 742.085938 753.441406 742.0625 752.820312 C 742.039062 752.199219 742.003906 751.578125 741.949219 750.960938 C 741.902344 750.355469 741.835938 749.753906 741.757812 749.148438 C 741.679688 748.546875 741.589844 747.949219 741.480469 747.351562 C 741.371094 746.753906 741.25 746.160156 741.113281 745.570312 C 740.976562 744.980469 740.824219 744.390625 740.65625 743.808594 C 740.492188 743.226562 740.308594 742.644531 740.113281 742.070312 C 739.921875 741.496094 739.710938 740.925781 739.488281 740.363281 C 739.265625 739.800781 739.027344 739.242188 738.777344 738.6875 C 738.523438 738.136719 738.261719 737.589844 737.984375 737.050781 C 737.703125 736.511719 737.414062 735.980469 737.109375 735.457031 C 736.804688 734.929688 736.488281 734.414062 736.15625 733.90625 C 735.828125 733.394531 735.484375 732.894531 735.128906 732.402344 C 734.773438 731.910156 734.40625 731.429688 734.027344 730.953125 C 733.648438 730.480469 733.261719 730.015625 732.859375 729.5625 C 732.457031 729.109375 732.042969 728.664062 731.621094 728.230469 C 731.195312 727.796875 730.761719 727.371094 730.316406 726.960938 C 729.871094 726.546875 729.417969 726.144531 728.953125 725.757812 C 722.214844 720.152344 712.535156 717.046875 703.777344 717.949219 C 703 718.035156 702.230469 718.148438 701.460938 718.296875 Z M 701.460938 718.296875 " fill-opacity="1" fill-rule="nonzero"/><path fill="#000000" d="M 235.328125 608.273438 L 235.800781 608.238281 C 251.398438 607.144531 267.421875 608.238281 283.066406 608.382812 C 293.191406 608.476562 303.871094 607.285156 313.863281 609.019531 C 318.789062 609.878906 323.101562 611.59375 326.886719 614.933594 C 327.210938 615.222656 327.527344 615.523438 327.839844 615.828125 C 328.148438 616.132812 328.449219 616.445312 328.746094 616.765625 C 329.039062 617.085938 329.324219 617.414062 329.601562 617.746094 C 329.882812 618.082031 330.152344 618.421875 330.410156 618.773438 C 330.671875 619.121094 330.925781 619.472656 331.167969 619.835938 C 331.410156 620.195312 331.644531 620.5625 331.871094 620.933594 C 332.09375 621.304688 332.3125 621.683594 332.515625 622.066406 C 332.722656 622.449219 332.921875 622.835938 333.105469 623.230469 C 333.292969 623.625 333.472656 624.019531 333.636719 624.421875 C 333.804688 624.824219 333.960938 625.230469 334.109375 625.640625 C 334.257812 626.050781 334.390625 626.460938 334.519531 626.878906 C 334.644531 627.292969 334.761719 627.714844 334.867188 628.136719 C 334.972656 628.558594 335.066406 628.980469 335.148438 629.410156 C 335.234375 629.835938 335.308594 630.265625 335.371094 630.695312 C 335.433594 631.125 335.484375 631.558594 335.527344 631.992188 C 335.566406 632.425781 335.597656 632.859375 335.617188 633.292969 C 335.644531 633.734375 335.660156 634.179688 335.664062 634.625 C 335.667969 635.070312 335.660156 635.515625 335.640625 635.960938 C 335.621094 636.402344 335.589844 636.847656 335.550781 637.289062 C 335.507812 637.730469 335.457031 638.171875 335.390625 638.613281 C 335.328125 639.054688 335.253906 639.492188 335.167969 639.929688 C 335.082031 640.363281 334.984375 640.796875 334.875 641.230469 C 334.765625 641.660156 334.648438 642.089844 334.515625 642.515625 C 334.386719 642.941406 334.246094 643.359375 334.09375 643.777344 C 333.941406 644.195312 333.78125 644.609375 333.605469 645.019531 C 333.433594 645.429688 333.25 645.835938 333.058594 646.234375 C 332.863281 646.636719 332.660156 647.03125 332.445312 647.421875 C 332.234375 647.8125 332.011719 648.195312 331.777344 648.574219 C 331.542969 648.953125 331.300781 649.324219 331.050781 649.691406 C 330.796875 650.058594 330.535156 650.417969 330.265625 650.769531 C 329.992188 651.125 329.714844 651.46875 329.425781 651.808594 C 329.136719 652.144531 328.839844 652.476562 328.535156 652.800781 C 322.589844 659.179688 315.992188 661.042969 307.445312 661.3125 L 258.363281 661.136719 C 248.597656 661.136719 237.375 662.363281 227.808594 660.339844 C 227.183594 660.210938 226.566406 660.0625 225.953125 659.890625 C 225.339844 659.71875 224.730469 659.527344 224.128906 659.3125 C 223.527344 659.101562 222.9375 658.867188 222.351562 658.613281 C 221.765625 658.359375 221.191406 658.085938 220.625 657.792969 C 220.058594 657.5 219.503906 657.1875 218.957031 656.855469 C 218.414062 656.523438 217.882812 656.175781 217.359375 655.804688 C 216.839844 655.4375 216.332031 655.054688 215.839844 654.648438 C 215.34375 654.246094 214.863281 653.828125 214.398438 653.390625 C 214.089844 653.105469 213.785156 652.8125 213.488281 652.511719 C 213.191406 652.210938 212.902344 651.902344 212.621094 651.589844 C 212.339844 651.273438 212.066406 650.953125 211.804688 650.621094 C 211.539062 650.292969 211.28125 649.957031 211.035156 649.617188 C 210.789062 649.273438 210.546875 648.925781 210.316406 648.570312 C 210.085938 648.21875 209.867188 647.859375 209.65625 647.496094 C 209.441406 647.128906 209.238281 646.757812 209.046875 646.382812 C 208.851562 646.007812 208.667969 645.628906 208.496094 645.242188 C 208.320312 644.859375 208.15625 644.46875 208 644.078125 C 207.847656 643.683594 207.703125 643.289062 207.570312 642.886719 C 207.433594 642.488281 207.308594 642.082031 207.195312 641.675781 C 207.082031 641.269531 206.976562 640.859375 206.882812 640.449219 C 206.789062 640.039062 206.707031 639.625 206.632812 639.207031 C 206.5625 638.792969 206.5 638.375 206.445312 637.953125 C 206.394531 637.535156 206.355469 637.117188 206.324219 636.695312 C 206.292969 636.273438 206.273438 635.851562 206.265625 635.429688 C 206.253906 634.976562 206.257812 634.523438 206.269531 634.070312 C 206.28125 633.617188 206.304688 633.167969 206.339844 632.714844 C 206.375 632.265625 206.421875 631.8125 206.476562 631.363281 C 206.535156 630.914062 206.601562 630.46875 206.679688 630.023438 C 206.757812 629.574219 206.847656 629.132812 206.949219 628.691406 C 207.046875 628.25 207.160156 627.8125 207.28125 627.375 C 207.402344 626.9375 207.535156 626.503906 207.679688 626.074219 C 207.820312 625.644531 207.972656 625.21875 208.136719 624.796875 C 208.300781 624.375 208.476562 623.957031 208.660156 623.542969 C 208.84375 623.128906 209.035156 622.722656 209.242188 622.316406 C 209.445312 621.914062 209.660156 621.515625 209.882812 621.121094 C 210.105469 620.726562 210.339844 620.339844 210.582031 619.957031 C 210.824219 619.574219 211.078125 619.199219 211.335938 618.828125 C 211.597656 618.457031 211.867188 618.09375 212.148438 617.738281 C 212.425781 617.382812 212.714844 617.03125 213.007812 616.6875 C 213.304688 616.347656 213.609375 616.011719 213.921875 615.683594 C 219.871094 609.53125 227.238281 608.472656 235.328125 608.273438 Z M 235.832031 620.46875 C 230.785156 620.582031 226.726562 621.3125 223.058594 625.179688 C 220.390625 627.992188 219.015625 632.402344 219.28125 636.234375 C 219.515625 639.59375 220.785156 642.503906 223.410156 644.671875 C 225.546875 646.433594 228.226562 647.746094 230.957031 648.210938 C 238.871094 649.558594 247.292969 648.601562 255.304688 648.621094 C 272.171875 648.671875 289.113281 648.511719 305.972656 648.933594 C 311.148438 648.859375 315.523438 648.386719 319.394531 644.507812 C 321.96875 641.921875 323.234375 638.085938 323.125 634.476562 C 323.011719 630.574219 321.351562 626.628906 318.378906 624.046875 C 316.734375 622.617188 315.050781 621.792969 312.914062 621.449219 C 307.972656 620.65625 302.921875 620.660156 297.929688 620.523438 C 284.070312 620.140625 270.175781 620.757812 256.308594 620.777344 C 249.792969 620.785156 242.617188 619.648438 236.199219 620.410156 C 236.074219 620.421875 235.953125 620.449219 235.832031 620.46875 Z M 235.832031 620.46875 " fill-opacity="1" fill-rule="nonzero"/></svg>