<svg xmlns="http://www.w3.org/2000/svg" xmlns:xlink="http://www.w3.org/1999/xlink" width="1080" zoomAndPan="magnify" viewBox="0 0 810 1012.49997" height="1350" preserveAspectRatio="xMidYMid meet" version="1.0"><defs><clipPath id="e17e87c92e"><path d="M 0.199219 101.199219 L 809.800781 101.199219 L 809.800781 910.800781 L 0.199219 910.800781 Z M 0.199219 101.199219 " clip-rule="nonzero"/></clipPath></defs><g clip-path="url(#e17e87c92e)"><path fill="#000000" d="M 799.785156 695.527344 C 805.695312 711.320312 809.144531 728.285156 809.667969 746.03125 C 809.792969 747.71875 809.792969 749.410156 809.792969 751.164062 C 809.792969 839.300781 738.296875 910.796875 650.160156 910.796875 C 291.1875 910.796875 0.199219 619.808594 0.199219 260.832031 C 0.199219 172.699219 71.695312 101.199219 159.832031 101.199219 C 161.585938 101.199219 163.277344 101.199219 164.964844 101.328125 C 182.710938 101.851562 199.738281 105.296875 215.53125 111.210938 L 275.460938 370.675781 C 275.460938 370.804688 275.394531 370.871094 275.265625 370.9375 L 165.355469 420.332031 L 165.03125 420.464844 C 215.46875 574.046875 336.945312 695.527344 490.53125 745.96875 L 490.664062 745.640625 L 540.125 635.667969 L 799.785156 695.527344 " fill-opacity="1" fill-rule="nonzero"/></g></svg>