<svg xmlns="http://www.w3.org/2000/svg" xmlns:xlink="http://www.w3.org/1999/xlink" width="1080" zoomAndPan="magnify" viewBox="0 0 810 1012.49997" height="1350" preserveAspectRatio="xMidYMid meet" version="1.0"><path fill="#c92a2a" d="M 406.195312 1011.839844 C 383.222656 899.113281 342.714844 805.304688 293.660156 718.363281 C 257.265625 653.875 215.113281 594.347656 176.105469 531.808594 C 163.085938 510.933594 151.847656 488.878906 139.335938 467.210938 C 114.316406 423.890625 94.035156 373.65625 95.324219 308.503906 C 96.582031 244.84375 115.003906 193.777344 141.566406 152.023438 C 185.253906 83.34375 258.429688 27.042969 356.613281 12.242188 C 436.898438 0.144531 512.164062 20.585938 565.539062 51.78125 C 609.152344 77.277344 642.933594 111.332031 668.605469 151.464844 C 695.40625 193.351562 713.859375 242.839844 715.40625 307.390625 C 716.199219 340.460938 710.78125 371.085938 703.148438 396.492188 C 695.429688 422.203125 683.007812 443.699219 671.953125 466.65625 C 650.378906 511.472656 623.328125 552.535156 596.183594 593.621094 C 515.324219 716.003906 439.433594 840.816406 406.199219 1011.839844 Z M 406.195312 1011.839844 " fill-opacity="1" fill-rule="evenodd"/><path fill="#ffffff" d="M 514.019531 307.796875 C 514.019531 309.574219 513.976562 311.351562 513.886719 313.128906 C 513.800781 314.902344 513.667969 316.675781 513.496094 318.441406 C 513.320312 320.210938 513.101562 321.976562 512.84375 323.734375 C 512.582031 325.492188 512.277344 327.242188 511.929688 328.984375 C 511.582031 330.726562 511.195312 332.460938 510.761719 334.183594 C 510.332031 335.910156 509.855469 337.621094 509.339844 339.324219 C 508.824219 341.023438 508.265625 342.710938 507.667969 344.382812 C 507.070312 346.058594 506.429688 347.714844 505.75 349.355469 C 505.066406 351 504.347656 352.621094 503.585938 354.230469 C 502.828125 355.835938 502.027344 357.421875 501.191406 358.992188 C 500.351562 360.558594 499.476562 362.105469 498.5625 363.628906 C 497.648438 365.152344 496.695312 366.652344 495.707031 368.132812 C 494.71875 369.609375 493.695312 371.0625 492.636719 372.488281 C 491.578125 373.917969 490.484375 375.316406 489.355469 376.691406 C 488.230469 378.066406 487.066406 379.410156 485.875 380.726562 C 484.679688 382.042969 483.453125 383.332031 482.195312 384.585938 C 480.941406 385.84375 479.652344 387.070312 478.335938 388.261719 C 477.015625 389.457031 475.671875 390.617188 474.296875 391.746094 C 472.921875 392.871094 471.519531 393.964844 470.09375 395.023438 C 468.664062 396.082031 467.210938 397.105469 465.734375 398.09375 C 464.253906 399.082031 462.753906 400.03125 461.226562 400.945312 C 459.703125 401.859375 458.15625 402.734375 456.589844 403.570312 C 455.019531 404.410156 453.433594 405.207031 451.824219 405.96875 C 450.21875 406.726562 448.59375 407.449219 446.949219 408.128906 C 445.308594 408.808594 443.648438 409.449219 441.976562 410.046875 C 440.300781 410.644531 438.613281 411.203125 436.910156 411.71875 C 435.210938 412.234375 433.496094 412.707031 431.773438 413.140625 C 430.046875 413.570312 428.3125 413.960938 426.570312 414.308594 C 424.824219 414.65625 423.074219 414.957031 421.316406 415.21875 C 419.554688 415.480469 417.792969 415.699219 416.023438 415.871094 C 414.253906 416.046875 412.480469 416.175781 410.703125 416.265625 C 408.929688 416.351562 407.152344 416.394531 405.375 416.394531 C 403.59375 416.394531 401.816406 416.351562 400.042969 416.265625 C 398.265625 416.175781 396.492188 416.046875 394.722656 415.871094 C 392.953125 415.699219 391.191406 415.480469 389.433594 415.21875 C 387.671875 414.957031 385.921875 414.65625 384.175781 414.308594 C 382.433594 413.960938 380.699219 413.570312 378.976562 413.140625 C 377.25 412.707031 375.535156 412.234375 373.835938 411.71875 C 372.132812 411.203125 370.445312 410.644531 368.773438 410.046875 C 367.097656 409.449219 365.4375 408.808594 363.796875 408.128906 C 362.152344 407.449219 360.527344 406.726562 358.921875 405.96875 C 357.3125 405.207031 355.726562 404.410156 354.160156 403.570312 C 352.589844 402.734375 351.042969 401.859375 349.519531 400.945312 C 347.992188 400.03125 346.492188 399.082031 345.011719 398.09375 C 343.535156 397.105469 342.082031 396.082031 340.652344 395.023438 C 339.226562 393.964844 337.824219 392.871094 336.449219 391.746094 C 335.074219 390.617188 333.730469 389.457031 332.410156 388.261719 C 331.09375 387.070312 329.808594 385.84375 328.550781 384.585938 C 327.292969 383.332031 326.066406 382.042969 324.871094 380.726562 C 323.679688 379.410156 322.515625 378.066406 321.390625 376.691406 C 320.261719 375.316406 319.167969 373.917969 318.109375 372.488281 C 317.050781 371.0625 316.027344 369.609375 315.039062 368.132812 C 314.050781 366.652344 313.097656 365.152344 312.183594 363.628906 C 311.269531 362.105469 310.394531 360.558594 309.558594 358.992188 C 308.71875 357.421875 307.917969 355.835938 307.160156 354.230469 C 306.398438 352.621094 305.679688 351 305 349.355469 C 304.316406 347.714844 303.679688 346.058594 303.078125 344.382812 C 302.480469 342.710938 301.921875 341.023438 301.40625 339.324219 C 300.890625 337.621094 300.417969 335.910156 299.984375 334.183594 C 299.550781 332.460938 299.164062 330.726562 298.816406 328.984375 C 298.46875 327.242188 298.164062 325.492188 297.902344 323.734375 C 297.644531 321.976562 297.425781 320.210938 297.25 318.441406 C 297.078125 316.675781 296.945312 314.902344 296.859375 313.128906 C 296.773438 311.351562 296.726562 309.574219 296.726562 307.796875 C 296.726562 306.019531 296.773438 304.246094 296.859375 302.46875 C 296.945312 300.695312 297.078125 298.921875 297.25 297.15625 C 297.425781 295.386719 297.644531 293.621094 297.902344 291.863281 C 298.164062 290.105469 298.46875 288.355469 298.816406 286.613281 C 299.164062 284.871094 299.550781 283.136719 299.984375 281.410156 C 300.417969 279.6875 300.890625 277.976562 301.40625 276.273438 C 301.921875 274.574219 302.480469 272.886719 303.078125 271.214844 C 303.679688 269.539062 304.316406 267.882812 305 266.242188 C 305.679688 264.597656 306.398438 262.972656 307.160156 261.367188 C 307.917969 259.761719 308.71875 258.175781 309.558594 256.605469 C 310.394531 255.039062 311.269531 253.492188 312.183594 251.96875 C 313.097656 250.445312 314.050781 248.945312 315.039062 247.464844 C 316.027344 245.988281 317.050781 244.535156 318.109375 243.109375 C 319.167969 241.679688 320.261719 240.28125 321.390625 238.90625 C 322.515625 237.53125 323.679688 236.1875 324.871094 234.871094 C 326.066406 233.554688 327.292969 232.265625 328.550781 231.007812 C 329.808594 229.753906 331.09375 228.527344 332.410156 227.335938 C 333.730469 226.140625 335.074219 224.980469 336.449219 223.851562 C 337.824219 222.726562 339.226562 221.632812 340.652344 220.574219 C 342.082031 219.515625 343.535156 218.492188 345.011719 217.503906 C 346.492188 216.515625 347.992188 215.566406 349.519531 214.652344 C 351.042969 213.738281 352.589844 212.863281 354.160156 212.027344 C 355.726562 211.1875 357.3125 210.390625 358.921875 209.628906 C 360.527344 208.867188 362.152344 208.148438 363.796875 207.46875 C 365.4375 206.789062 367.097656 206.148438 368.773438 205.550781 C 370.445312 204.953125 372.132812 204.394531 373.835938 203.878906 C 375.535156 203.363281 377.25 202.890625 378.976562 202.457031 C 380.699219 202.023438 382.433594 201.636719 384.175781 201.289062 C 385.921875 200.941406 387.671875 200.640625 389.433594 200.378906 C 391.191406 200.117188 392.953125 199.898438 394.722656 199.726562 C 396.492188 199.550781 398.265625 199.421875 400.042969 199.332031 C 401.816406 199.246094 403.59375 199.203125 405.375 199.203125 C 407.152344 199.203125 408.929688 199.246094 410.703125 199.332031 C 412.480469 199.421875 414.253906 199.550781 416.023438 199.726562 C 417.792969 199.898438 419.554688 200.117188 421.316406 200.378906 C 423.074219 200.640625 424.824219 200.941406 426.570312 201.289062 C 428.3125 201.636719 430.046875 202.023438 431.773438 202.457031 C 433.496094 202.890625 435.210938 203.363281 436.910156 203.878906 C 438.613281 204.394531 440.300781 204.953125 441.976562 205.550781 C 443.648438 206.148438 445.308594 206.789062 446.949219 207.46875 C 448.59375 208.148438 450.21875 208.867188 451.824219 209.628906 C 453.433594 210.390625 455.019531 211.1875 456.589844 212.027344 C 458.15625 212.863281 459.703125 213.738281 461.226562 214.652344 C 462.753906 215.566406 464.253906 216.515625 465.734375 217.503906 C 467.210938 218.492188 468.664062 219.515625 470.09375 220.574219 C 471.519531 221.632812 472.921875 222.726562 474.296875 223.851562 C 475.671875 224.980469 477.015625 226.140625 478.335938 227.335938 C 479.652344 228.527344 480.941406 229.753906 482.195312 231.007812 C 483.453125 232.265625 484.679688 233.554688 485.875 234.871094 C 487.066406 236.1875 488.230469 237.53125 489.355469 238.90625 C 490.484375 240.28125 491.578125 241.679688 492.636719 243.109375 C 493.695312 244.535156 494.71875 245.988281 495.707031 247.464844 C 496.695312 248.945312 497.648438 250.445312 498.5625 251.96875 C 499.476562 253.492188 500.351562 255.039062 501.191406 256.605469 C 502.027344 258.175781 502.828125 259.761719 503.585938 261.367188 C 504.347656 262.972656 505.066406 264.597656 505.75 266.242188 C 506.429688 267.882812 507.070312 269.539062 507.667969 271.214844 C 508.265625 272.886719 508.824219 274.574219 509.339844 276.273438 C 509.855469 277.976562 510.332031 279.6875 510.761719 281.410156 C 511.195312 283.136719 511.582031 284.871094 511.929688 286.613281 C 512.277344 288.355469 512.582031 290.105469 512.84375 291.863281 C 513.101562 293.621094 513.320312 295.386719 513.496094 297.15625 C 513.667969 298.921875 513.800781 300.695312 513.886719 302.46875 C 513.976562 304.246094 514.019531 306.019531 514.019531 307.796875 Z M 514.019531 307.796875 " fill-opacity="1" fill-rule="nonzero"/></svg>